<?xml version="1.0" encoding="utf-8"?>
<COLLADA xmlns="http://www.collada.org/2005/11/COLLADASchema" version="1.4.1" xmlns:xsi="http://www.w3.org/2001/XMLSchema-instance">
  <asset>
    <contributor>
      <author>Blender User</author>
      <authoring_tool>Blender 2.93.3 commit date:2021-08-17, commit time:18:30, hash:8b80d19f3641</authoring_tool>
    </contributor>
    <created>2021-08-30T11:30:34</created>
    <modified>2021-08-30T11:30:34</modified>
    <unit name="meter" meter="1"/>
    <up_axis>Z_UP</up_axis>
  </asset>
  <library_effects>
    <effect id="Material-effect">
      <profile_COMMON>
        <newparam sid="Lidar_Color_png-surface">
          <surface type="2D">
            <init_from>Lidar_Color_png</init_from>
          </surface>
        </newparam>
        <newparam sid="Lidar_Color_png-sampler">
          <sampler2D>
            <source>Lidar_Color_png-surface</source>
          </sampler2D>
        </newparam>
        <technique sid="common">
          <lambert>
            <emission>
              <color sid="emission">0 0 0 1</color>
            </emission>
            <diffuse>
              <texture texture="Lidar_Color_png-sampler" texcoord="UVMap"/>
            </diffuse>
            <index_of_refraction>
              <float sid="ior">1.45</float>
            </index_of_refraction>
          </lambert>
        </technique>
      </profile_COMMON>
    </effect>
  </library_effects>
  <library_images>
    <image id="Lidar_Color_png" name="Lidar_Color_png">
      <init_from>Lidar_Color.png</init_from>
    </image>
  </library_images>
  <library_materials>
    <material id="Material-material" name="Material">
      <instance_effect url="#Material-effect"/>
    </material>
  </library_materials>
  <library_geometries>
    <geometry id="Cylinder-mesh" name="Cylinder">
      <mesh>
        <source id="Cylinder-mesh-positions">
          <float_array id="Cylinder-mesh-positions-array" count="864">0 1 -0.2498431 0 0.9532704 0.236074 0.1950903 0.9807853 -0.2498431 0.1859738 0.9349536 0.236074 0.3826835 0.9238795 -0.2498431 0.3648008 0.880707 0.236074 0.5555703 0.8314696 -0.2498431 0.5296087 0.7926154 0.236074 0.7071068 0.7071068 -0.2498431 0.674064 0.674064 0.236074 0.8314696 0.5555703 -0.2498431 0.7926154 0.5296087 0.236074 0.9238795 0.3826834 -0.2498431 0.880707 0.3648008 0.236074 0.9807853 0.1950903 -0.2498431 0.9349536 0.1859738 0.236074 1 0 -0.2498431 0.9532704 0 0.236074 0.9807853 -0.1950903 -0.2498431 0.9349536 -0.1859738 0.236074 0.9238796 -0.3826834 -0.2498431 0.8807071 -0.3648008 0.236074 0.8314697 -0.5555702 -0.2498431 0.7926154 -0.5296086 0.236074 0.7071068 -0.7071068 -0.2498431 0.674064 -0.674064 0.236074 0.5555702 -0.8314697 -0.2498431 0.5296086 -0.7926154 0.236074 0.3826835 -0.9238795 -0.2498431 0.3648008 -0.880707 0.236074 0.1950903 -0.9807853 -0.2498431 0.1859738 -0.9349536 0.236074 0 -1 -0.2498431 0 -0.9532704 0.236074 -0.1950902 -0.9807853 -0.2498431 -0.1859737 -0.9349536 0.236074 -0.3826834 -0.9238795 -0.2498431 -0.3648008 -0.880707 0.236074 -0.5555703 -0.8314695 -0.2498431 -0.5296087 -0.7926153 0.236074 -0.7071067 -0.7071068 -0.2498431 -0.6740639 -0.674064 0.236074 -0.8314695 -0.5555704 -0.2498431 -0.7926153 -0.5296089 0.236074 -0.9238795 -0.3826836 -0.2498431 -0.880707 -0.3648009 0.236074 -0.9807853 -0.1950904 -0.2498431 -0.9349536 -0.1859739 0.236074 -1 0 -0.2498431 -0.9532704 0 0.236074 -0.9807853 0.1950904 -0.2498431 -0.9349536 0.1859739 0.236074 -0.9238795 0.3826836 -0.2498431 -0.880707 0.3648009 0.236074 -0.8314697 0.5555701 -0.2498431 -0.7926155 0.5296085 0.236074 -0.7071069 0.7071067 -0.2498431 -0.6740641 0.6740639 0.236074 -0.5555703 0.8314696 -0.2498431 -0.5296087 0.7926154 0.236074 -0.3826834 0.9238796 -0.2498431 -0.3648008 0.8807071 0.236074 -0.1950902 0.9807853 -0.2498431 -0.1859737 0.9349536 0.236074 0.1950903 0.9807853 0.236074 0 1 0.236074 0.3826835 0.9238795 0.236074 0.5555703 0.8314696 0.236074 0.7071068 0.7071068 0.236074 0.8314696 0.5555703 0.236074 0.9238795 0.3826834 0.236074 0.9807853 0.1950903 0.236074 1 0 0.236074 0.9807853 -0.1950903 0.236074 0.9238796 -0.3826834 0.236074 0.8314697 -0.5555702 0.236074 0.7071068 -0.7071068 0.236074 0.5555702 -0.8314697 0.236074 0.3826835 -0.9238795 0.236074 0.1950903 -0.9807853 0.236074 0 -1 0.236074 -0.1950902 -0.9807853 0.236074 -0.3826834 -0.9238795 0.236074 -0.5555703 -0.8314695 0.236074 -0.7071067 -0.7071068 0.236074 -0.8314695 -0.5555704 0.236074 -0.9238795 -0.3826836 0.236074 -0.9807853 -0.1950904 0.236074 -1 0 0.236074 -0.9807853 0.1950904 0.236074 -0.9238795 0.3826836 0.236074 -0.8314697 0.5555701 0.236074 -0.7071069 0.7071067 0.236074 -0.5555703 0.8314696 0.236074 -0.3826834 0.9238796 0.236074 -0.1950902 0.9807853 0.236074 0.1580781 0.7947128 0.732865 0.1859738 0.9349536 0.5905653 0.1687533 0.8483806 0.7220332 0.1778033 0.893878 0.6911864 0.1838504 0.9242784 0.645021 0 0.9532704 0.5905653 0 0.8102821 0.732865 0 0.9423861 0.645021 0 0.9113901 0.6911864 0 0.8650014 0.7220332 0.3100817 0.748603 0.732865 0.3648008 0.880707 0.5905653 0.3310218 0.799157 0.7220332 0.348774 0.8420147 0.6911864 0.3606356 0.8706513 0.645021 0.4501687 0.6737249 0.732865 0.5296087 0.7926154 0.5905653 0.4805691 0.7192224 0.7220332 0.5063413 0.7577932 0.6911864 0.5235617 0.7835654 0.645021 0.572956 0.572956 0.732865 0.674064 0.674064 0.5905653 0.6116484 0.6116484 0.7220332 0.6444502 0.6444502 0.6911864 0.6663677 0.6663677 0.645021 0.673725 0.4501685 0.732865 0.7926154 0.5296087 0.5905653 0.7192223 0.4805689 0.7220332 0.7577931 0.5063412 0.6911864 0.7835654 0.5235616 0.645021 0.7486031 0.3100814 0.732865 0.880707 0.3648008 0.5905653 0.7991571 0.3310216 0.7220332 0.8420147 0.3487738 0.6911864 0.8706512 0.3606355 0.645021 0.7947127 0.1580784 0.732865 0.9349536 0.1859738 0.5905653 0.8483805 0.1687535 0.7220332 0.8938779 0.1778035 0.6911864 0.9242783 0.1838504 0.645021 0.8102821 0 0.732865 0.9532704 0 0.5905653 0.8650014 0 0.7220332 0.9113901 0 0.6911864 0.9423861 0 0.645021 0.7947128 -0.1580782 0.732865 0.9349536 -0.1859738 0.5905653 0.8483806 -0.1687534 0.7220332 0.893878 -0.1778033 0.6911864 0.9242784 -0.1838504 0.645021 0.7486031 -0.3100817 0.732865 0.8807071 -0.3648008 0.5905653 0.799157 -0.3310217 0.7220332 0.8420147 -0.3487739 0.6911864 0.8706513 -0.3606355 0.645021 0.673725 -0.4501686 0.732865 0.7926154 -0.5296086 0.5905653 0.7192224 -0.480569 0.7220332 0.7577932 -0.5063412 0.6911864 0.7835654 -0.5235616 0.645021 0.572956 -0.572956 0.732865 0.674064 -0.674064 0.5905653 0.6116484 -0.6116484 0.7220332 0.6444502 -0.6444502 0.6911864 0.6663677 -0.6663677 0.645021 0.4501686 -0.673725 0.732865 0.5296086 -0.7926154 0.5905653 0.480569 -0.7192224 0.7220332 0.5063412 -0.7577932 0.6911864 0.5235616 -0.7835654 0.645021 0.3100818 -0.748603 0.732865 0.3648008 -0.880707 0.5905653 0.3310219 -0.799157 0.7220332 0.348774 -0.8420147 0.6911864 0.3606356 -0.8706513 0.645021 0.1580783 -0.7947128 0.732865 0.1859738 -0.9349536 0.5905653 0.1687535 -0.8483807 0.7220332 0.1778034 -0.8938781 0.6911864 0.1838504 -0.9242785 0.645021 0 -0.8102822 0.732865 0 -0.9532704 0.5905653 0 -0.8650015 0.7220332 0 -0.9113902 0.6911864 0 -0.9423862 0.645021 -0.1580783 -0.7947128 0.732865 -0.1859737 -0.9349536 0.5905653 -0.1687534 -0.8483807 0.7220332 -0.1778033 -0.8938781 0.6911864 -0.1838503 -0.9242785 0.645021 -0.3100817 -0.748603 0.732865 -0.3648008 -0.880707 0.5905653 -0.3310218 -0.799157 0.7220332 -0.348774 -0.8420147 0.6911864 -0.3606355 -0.8706513 0.645021 -0.4501688 -0.6737248 0.732865 -0.5296087 -0.7926153 0.5905653 -0.4805691 -0.7192222 0.7220332 -0.5063413 -0.7577931 0.6911864 -0.5235617 -0.7835653 0.645021 -0.5729559 -0.5729562 0.732865 -0.6740639 -0.674064 0.5905653 -0.6116482 -0.6116485 0.7220332 -0.6444501 -0.6444503 0.6911864 -0.6663675 -0.6663677 0.645021 -0.6737249 -0.4501688 0.732865 -0.7926153 -0.5296089 0.5905653 -0.7192223 -0.4805692 0.7220332 -0.7577931 -0.5063414 0.6911864 -0.7835653 -0.5235618 0.645021 -0.748603 -0.3100818 0.732865 -0.880707 -0.3648009 0.5905653 -0.799157 -0.3310219 0.7220332 -0.8420147 -0.3487741 0.6911864 -0.8706513 -0.3606357 0.645021 -0.7947128 -0.1580782 0.732865 -0.9349536 -0.1859739 0.5905653 -0.8483806 -0.1687534 0.7220332 -0.893878 -0.1778034 0.6911864 -0.9242784 -0.1838504 0.645021 -0.8102821 0 0.732865 -0.9532704 0 0.5905653 -0.8650014 0 0.7220332 -0.9113901 0 0.6911864 -0.9423861 0 0.645021 -0.7947128 0.1580781 0.732865 -0.9349536 0.1859739 0.5905653 -0.8483806 0.1687533 0.7220332 -0.893878 0.1778034 0.6911864 -0.9242784 0.1838505 0.645021 -0.7486031 0.3100816 0.732865 -0.880707 0.3648009 0.5905653 -0.799157 0.3310218 0.7220332 -0.8420146 0.348774 0.6911864 -0.8706511 0.3606357 0.645021 -0.6737251 0.4501684 0.732865 -0.7926155 0.5296085 0.5905653 -0.7192224 0.4805688 0.7220332 -0.7577933 0.506341 0.6911864 -0.7835655 0.5235615 0.645021 -0.5729561 0.5729559 0.732865 -0.6740641 0.6740639 0.5905653 -0.6116485 0.6116483 0.7220332 -0.6444503 0.6444501 0.6911864 -0.6663678 0.6663675 0.645021 -0.3100814 0.7486032 0.732865 -0.5296087 0.7926154 0.5905653 -0.480569 0.7192223 0.7220332 -0.5063412 0.7577931 0.6911864 -0.5235617 0.7835653 0.645021 -0.3100814 0.7486032 0.732865 -0.3648008 0.8807071 0.5905653 -0.3310217 0.7991573 0.7220332 -0.3487739 0.8420148 0.6911864 -0.3606355 0.8706513 0.645021 -0.1580783 0.7947128 0.732865 -0.1859737 0.9349536 0.5905653 -0.1687535 0.8483807 0.7220332 -0.1778033 0.8938781 0.6911864 -0.1838503 0.9242785 0.645021 0.1859738 0.9349536 0.2867156 0 0.9532704 0.2867156 0.3648008 0.880707 0.2867156 -0.1859737 0.9349536 0.2867156 0.5296087 0.7926154 0.2867156 0.674064 0.674064 0.2867156 0.7926154 0.5296087 0.2867156 0.880707 0.3648008 0.2867156 0.9349536 0.1859738 0.2867156 0.9532704 0 0.2867156 0.9349536 -0.1859738 0.2867156 0.8807071 -0.3648008 0.2867156 0.7926154 -0.5296086 0.2867156 0.674064 -0.674064 0.2867156 0.5296086 -0.7926154 0.2867156 0.3648008 -0.880707 0.2867156 0.1859738 -0.9349536 0.2867156 0 -0.9532704 0.2867156 -0.1859737 -0.9349536 0.2867156 -0.3648008 -0.880707 0.2867156 -0.5296087 -0.7926153 0.2867156 -0.6740639 -0.674064 0.2867156 -0.7926153 -0.5296089 0.2867156 -0.880707 -0.3648009 0.2867156 -0.9349536 -0.1859739 0.2867156 -0.9532704 0 0.2867156 -0.9349536 0.1859739 0.2867156 -0.880707 0.3648009 0.2867156 -0.7926155 0.5296085 0.2867156 -0.6740641 0.6740639 0.2867156 -0.5296087 0.7926154 0.2867156 -0.3648008 0.8807071 0.2867156</float_array>
          <technique_common>
            <accessor source="#Cylinder-mesh-positions-array" count="288" stride="3">
              <param name="X" type="float"/>
              <param name="Y" type="float"/>
              <param name="Z" type="float"/>
            </accessor>
          </technique_common>
        </source>
        <source id="Cylinder-mesh-normals">
          <float_array id="Cylinder-mesh-normals-array" count="1080">1.2392e-7 1 0 0.1950904 0.9807854 0 1.28686e-7 1 0 0.1950904 0.9807854 0 0.3826833 0.9238796 0 0.3826834 0.9238796 0 0.5555704 0.8314695 0 0.5555702 0.8314697 0 0.7071068 0.7071068 0 0.7071068 0.7071068 0 0.8314694 0.5555706 0 0.8314698 0.55557 0 0.9238795 0.3826836 0 0.9238796 0.3826832 0 0.9807853 0.1950904 0 0.9807854 0.1950904 0 1 0 0 1 0 0 0.9807853 -0.1950904 0 0.9807853 -0.1950902 0 0.9238795 -0.3826835 0 0.9238797 -0.3826833 0 0.8314697 -0.5555703 0 0.8314697 -0.5555703 0 0.7071068 -0.7071069 0 0.7071069 -0.7071067 0 0.5555702 -0.8314697 0 0.5555703 -0.8314696 0 0.3826835 -0.9238796 0 0.3826835 -0.9238796 0 0.1950903 -0.9807853 0 0.1950902 -0.9807853 0 0 -1 0 0 -1 0 -0.1950904 -0.9807854 0 -0.3826835 -0.9238796 0 -0.3826836 -0.9238795 0 -0.5555704 -0.8314695 0 -0.5555702 -0.8314697 0 -0.7071069 -0.7071067 0 -0.7071066 -0.707107 0 -0.8314695 -0.5555705 0 -0.9238795 -0.3826836 0 -0.9807853 -0.1950903 0 -1 0 0 -1 0 0 -0.9807853 0.1950903 0 -0.9807853 0.1950905 0 -0.9238796 0.3826833 0 -0.9238795 0.3826838 0 -0.8314698 0.55557 0 -0.8314696 0.5555703 0 -0.707107 0.7071067 0 -0.5555704 0.8314695 0 -0.5555705 0.8314695 0 -0.3826835 0.9238796 0 0.8314695 0.5555704 0 0.7037116 0.7037111 0.09788089 0.8274772 0.5529023 0.09788101 -0.3826833 0.9238796 0 -0.1950902 0.9807853 0 -0.1950901 0.9807853 0 0 0 -1 0 0 -1 0 0 -1 0 0 1 0 0 1 0 0 1 0 0 1 0 0 1 0 0 1 4.2776e-7 0 1 0 0 1 0 0 1 3.62758e-7 0 1 -1.58441e-7 0 1 0 0 1 -2.41138e-7 0 1 3.59301e-7 0 1 0 0 1 4.28663e-7 0 1 0 0 1 0 0 1 0 0 1 -1.7965e-7 0 1 0 0 1 -2.14332e-7 0 1 0 0 1 0 0 1 0 0 1 0 0 1 0 0 1 0 0 1 0 0 1 0 0 1 0 0 1 0 0 1 0 0 1 0 0 1 0 0 1 0 0 1 0 0 1 0 0 1 -1.34738e-7 0 1 -1.26323e-7 0 1 0 0 1 0 0 1 0 0 1 0 0 1 -1.30148e-7 0 1 0 0 1 0 0 1 -1.34738e-7 0 1 0 0 1 0 0 1 -1.67494e-7 0 1 0 0 1 0 0 1 -2.04316e-7 0 1 0 0 1 0 0 1 -0.3826836 -0.9238795 0 -0.1941536 -0.9760757 0.09788089 -0.3808462 -0.9194432 0.09788018 -0.5555703 -0.8314697 0 -0.5529026 -0.827477 0.09788143 0.9238796 0.3826835 0 0.9194432 0.3808459 0.09788131 -0.7071066 -0.707107 0 -0.703711 -0.7037118 0.09788089 0.9807853 0.1950906 0 0.9760757 0.1941537 0.09788125 -0.8314694 -0.5555705 0 -0.8274769 -0.5529026 0.09788113 1 0 0 0.9951982 0 0.09788095 -0.9238795 -0.3826836 0 -0.9194433 -0.3808459 0.09788066 0.9807853 -0.1950902 0 0.9760757 -0.1941533 0.09788078 -0.9807853 -0.1950905 0 -0.9760757 -0.1941534 0.09788084 0.9238795 -0.3826835 0 0.9194431 -0.3808459 0.09788119 -1 0 0 -0.9951982 0 0.09788089 0.8314694 -0.5555705 0 0.8274773 -0.5529023 0.09788089 -0.9807853 0.1950907 0 -0.9760757 0.1941538 0.09788078 0.7071069 -0.7071067 0 0.7037113 -0.7037114 0.0978806 -0.9238796 0.3826833 0 -0.9194433 0.3808457 0.09788095 0.5529025 -0.8274771 0.09788072 0.3826835 -0.9238795 0 0.3808461 -0.9194432 0.09788066 0 0.1035901 0.9946202 -0.1015998 0.02020943 0.9946201 -0.02020949 -0.1016001 0.99462 0.1950904 -0.9807854 0 0.1941535 -0.9760757 0.09788072 0 -1 0 0 -0.9951982 0.09788095 1.61418e-7 0.9951981 0.09788119 0.1804659 0.9072639 0.3798743 0.1941535 0.9760757 0.09788048 2.52943e-7 0.9250373 0.3798764 0.1388156 0.6978734 0.7026401 0 0.7115437 0.7026419 0.07638138 0.3839949 0.9201706 0 0.3915169 0.9201709 0.02020972 0.1016001 0.99462 0.3539965 0.8546236 0.3798752 0.3808459 0.9194433 0.09788024 0.2722962 0.6573817 0.7026409 0.1498271 0.3617149 0.9201709 0.03964245 0.09570485 0.99462 0.5529026 0.827477 0.0978806 0.5139237 0.7691407 0.3798753 0.3953136 0.591628 0.7026405 0.2175153 0.3255349 0.9201707 0.05755168 0.08613198 0.9946201 0.6541004 0.6541004 0.3798756 0.5031381 0.5031383 0.7026407 0.2768443 0.2768443 0.920171 0.0732491 0.07324922 0.9946202 0.769141 0.5139234 0.3798751 0.5916283 0.395313 0.7026405 0.3255342 0.217515 0.9201711 0.08613187 0.05755168 0.9946202 0.8546233 0.3539967 0.3798755 0.6573821 0.2722964 0.7026403 0.3617157 0.1498273 0.9201705 0.09570157 0.03964233 0.9946204 0.9072633 0.1804659 0.3798753 0.6978728 0.1388156 0.7026405 0.383994 0.07638132 0.9201709 0.1015997 0.02020943 0.9946202 0.9250377 0 0.3798755 0.7115452 2.38382e-7 0.7026404 0.3915176 1.4829e-7 0.9201706 0.1035904 0 0.9946201 0.9072635 -0.1804659 0.3798751 0.6978726 -0.1388157 0.7026408 0.3839938 -0.07638138 0.920171 0.1016 -0.02020949 0.99462 0.8546233 -0.3539967 0.3798754 0.6573818 -0.2722964 0.7026406 0.361715 -0.1498273 0.9201707 0.09570652 -0.03964233 0.9946199 0.7691413 -0.513923 0.3798748 0.5916286 -0.395313 0.7026402 0.3255347 -0.2175155 0.9201708 0.08613127 -0.05755156 0.9946202 0.6541001 -0.6541008 0.3798753 0.503138 -0.5031383 0.7026408 0.2768448 -0.2768445 0.9201708 0.07325065 -0.07324922 0.99462 0.5139237 -0.7691407 0.379875 0.395314 -0.5916286 0.7026398 0.2175159 -0.3255355 0.9201704 0.05755192 -0.08613222 0.9946201 0.3539966 -0.8546231 0.379876 0.2722963 -0.657381 0.7026414 0.149827 -0.3617146 0.9201709 0.03964227 -0.09570497 0.99462 0.1804659 -0.9072636 0.379875 0.1388157 -0.697873 0.7026404 0.07638132 -0.3839944 0.9201707 0.02020943 -0.1015999 0.99462 -1.31383e-7 -0.9250379 0.3798748 0 -0.7115458 0.7026398 0 -0.3915176 0.9201706 0 -0.10359 0.9946202 -0.180466 -0.9072633 0.3798753 -0.1388156 -0.6978723 0.7026411 -0.07638132 -0.3839943 0.9201709 -0.3539966 -0.8546234 0.3798753 -0.2722964 -0.6573812 0.7026413 -0.1498271 -0.3617146 0.920171 -0.03964221 -0.09570491 0.99462 -0.513924 -0.7691405 0.3798751 -0.395314 -0.5916284 0.7026399 -0.2175153 -0.3255348 0.9201707 -0.05755233 -0.08613222 0.9946201 -0.6541 -0.6541011 0.379875 -0.5031378 -0.5031386 0.7026407 -0.2768439 -0.2768444 0.920171 -0.07324814 -0.07324945 0.9946202 -0.7691407 -0.5139237 0.3798751 -0.5916281 -0.3953135 0.7026404 -0.3255346 -0.2175155 0.9201709 -0.08613252 -0.05755168 0.9946201 -0.8546236 -0.3539967 0.3798752 -0.6573821 -0.2722964 0.7026404 -0.3617153 -0.1498271 0.9201706 -0.09570819 -0.03964227 0.9946198 -0.9072633 -0.1804659 0.3798754 -0.6978725 -0.1388155 0.702641 -0.3839934 -0.07638132 0.9201712 -0.1015976 -0.02020949 0.9946203 -0.9250379 0 0.379875 -0.7115454 1.24692e-7 0.7026402 -0.3915176 1.47075e-7 0.9201706 -0.1035905 0 0.9946201 -0.9072633 0.1804661 0.3798753 -0.6978724 0.1388155 0.7026411 -0.3839937 0.0763812 0.9201712 -0.8546236 0.3539965 0.3798751 -0.6573823 0.2722966 0.7026402 -0.3617148 0.1498273 0.9201708 -0.09570634 0.03964233 0.99462 -0.8274771 0.5529024 0.09788084 -0.769141 0.5139233 0.3798751 -0.5916284 0.395313 0.7026405 -0.3255345 0.2175152 0.9201709 -0.08613204 0.05755162 0.99462 -0.7037115 0.7037113 0.09788089 -0.6541 0.654101 0.3798754 -0.5031383 0.5031385 0.7026405 -0.2768442 0.2768445 0.9201709 -0.07251769 0.07394987 0.9946219 -0.513924 0.7691406 0.379875 -0.5529029 0.8274768 0.09788119 -0.395314 0.5916281 0.70264 -0.2095365 0.3135929 0.92615 -0.02058571 0.03678131 0.9991114 -0.3808459 0.9194432 0.0978806 -0.3539968 0.8546237 0.3798747 -0.2722966 0.6573818 0.7026405 -0.1498271 0.3617148 0.9201709 -0.01971906 0.06500566 0.9976901 -0.1941533 0.9760758 0.09788048 -0.1804657 0.9072642 0.3798735 -0.1388155 0.6978739 0.7026396 -0.07638108 0.3839944 0.9201708 -0.02020949 0.1015996 0.9946202 0 1 0 0.1950904 0.9807853 0 0.1950903 0.9807853 0 -0.3826835 0.9238796 0 -0.3826835 0.9238795 0 -0.1950901 0.9807853 0 0.7071068 0.7071068 0 0.5555703 0.8314696 0 0.5555703 0.8314697 0 0.7071068 0.7071067 0 -0.5555704 0.8314695 0 0 -1 0 -0.1950904 -0.9807853 0 -0.1950904 -0.9807853 0 -0.5555703 0.8314696 0 1.24217e-7 1 0 0.3826835 0.9238795 0 -0.707107 0.7071066 0 0.1950904 -0.9807854 0 -0.7071072 0.7071064 0 -0.8314697 0.5555703 0 0.3826836 -0.9238795 0 -0.8314695 0.5555704 0 0.5555703 -0.8314697 0 -0.9238798 0.3826832 0 0.7071071 -0.7071065 0 -0.9807852 0.1950908 0 0.8314696 -0.5555704 0 -1 0 0 -0.9807854 -0.1950904 0 0.9807853 -0.1950903 0 -0.9238796 -0.3826835 0 1 0 0 -0.8314696 -0.5555704 0 0.9807853 0.1950906 0 -0.7071065 -0.7071071 0 0.9238797 0.3826832 0 0.3826836 0.9238796 0 0.8314695 0.5555705 0 0 0 -1 0 0 -1 0 0 -1 -4.96889e-7 0 -1 -1.72241e-7 0 -1 0 0 -1 9.93781e-7 0 -1 0 0 -1 9.93781e-7 0 -1 0 0 -1 0 0 -1 -4.96893e-7 0 -1 0 0 -1 4.96893e-7 0 -1 -1.22064e-7 0 -1 2.05592e-7 0 -1 -9.93777e-7 0 -1 -1.29749e-6 0 -1 5.49167e-7 0 -1 0 0 -1 0 0 -1 -3.0781e-7 0 -1 4.96888e-7 0 -1</float_array>
          <technique_common>
            <accessor source="#Cylinder-mesh-normals-array" count="360" stride="3">
              <param name="X" type="float"/>
              <param name="Y" type="float"/>
              <param name="Z" type="float"/>
            </accessor>
          </technique_common>
        </source>
        <source id="Cylinder-mesh-map-0">
          <float_array id="Cylinder-mesh-map-0-array" count="3432">0.962009 0.3803586 0.8595569 0.4096516 0.8601485 0.3805851 0.9614173 0.4094251 0.8591173 0.4438297 0.8595569 0.4096516 0.9609777 0.4436032 0.8588466 0.4818058 0.8591173 0.4438297 0.9607071 0.4815793 0.8587551 0.5221206 0.8588466 0.4818058 0.9606156 0.521894 0.8588466 0.5632247 0.8587551 0.5221206 0.9607071 0.5629982 0.8591173 0.6035388 0.8588466 0.5632247 0.9609777 0.6033123 0.8595569 0.6415133 0.8591173 0.6035388 0.9614174 0.6412868 0.8601485 0.6756891 0.8595569 0.6415133 0.8587551 0.3803586 0.7563031 0.4096517 0.7568947 0.3805851 0.8581635 0.4094251 0.7558634 0.4438297 0.7563031 0.4096517 0.857724 0.4436032 0.7555927 0.4818058 0.7558634 0.4438297 0.8574532 0.4815793 0.7555013 0.5221207 0.7555927 0.4818058 0.8573618 0.5218941 0.7555927 0.5632249 0.7555013 0.5221207 0.8574532 0.5629984 0.7558634 0.6035388 0.7555927 0.5632249 0.857724 0.6033123 0.7563031 0.6415134 0.7558634 0.6035388 0.8581635 0.6412869 0.7568947 0.6756892 0.7563031 0.6415134 0.7259817 0.8203817 0.6969166 0.7191771 0.7259817 0.7185209 0.7555013 0.9417273 0.8578777 0.9075503 0.857362 0.9417273 0.7560169 0.9075503 0.8582328 0.8695749 0.8578777 0.9075503 0.7563721 0.8695749 0.8584139 0.8292605 0.8582328 0.8695749 0.7565531 0.8292605 0.8584139 0.7881562 0.8584139 0.8292605 0.7565531 0.7881562 0.8582328 0.7478417 0.8584139 0.7881562 0.7563721 0.7478417 0.8578777 0.7098662 0.8582328 0.7478417 0.7560169 0.7098662 0.857362 0.6756892 0.8578777 0.7098662 0.9009514 0 0.7984993 0.02929306 0.7990909 2.26498e-4 0.9003598 0.02906656 0.7980597 0.06347113 0.7984993 0.02929306 0.8999202 0.06324458 0.797789 0.1014471 0.7980597 0.06347113 0.8996495 0.1012206 0.7976976 0.1417619 0.797789 0.1014471 0.8995581 0.1415354 0.797789 0.1828662 0.7976976 0.1417619 0.8996495 0.1826396 0.7980597 0.2231802 0.797789 0.1828662 0.869458 0.8499358 0.9330654 0.8106108 0.9331526 0.8497942 0.8999202 0.2229536 0.7984993 0.2611548 0.7980597 0.2231802 0.9003598 0.2609282 0.7990909 0.2953305 0.7984993 0.2611548 0.1098273 0.441088 0.39359 0.5271664 0.3075116 0.810929 0.01739537 0.2666919 0.02374899 0.3075116 0.008019089 0.2695361 0.05415946 0.3354727 0.02374899 0.3075116 0.03239029 0.3028928 0.08186638 0.3631796 0.04658532 0.3416886 0.05415946 0.3354727 0.1144463 0.3849487 0.07565051 0.3707537 0.08186638 0.3631796 0.1506471 0.3999436 0.1098274 0.39359 0.1144463 0.3849487 0.1506471 0.3999436 0.1881173 0.417339 0.1478028 0.4093199 0.1890777 0.407588 0.2292217 0.417339 0.1881173 0.417339 0.2666919 0.3999436 0.2292217 0.417339 0.2282612 0.407588 0.2666919 0.3999436 0.3075116 0.39359 0.2695361 0.4093199 0.3354727 0.3631795 0.3075116 0.39359 0.3028928 0.3849487 0.3354727 0.3631795 0.3707537 0.3416885 0.3416886 0.3707537 0.3849487 0.3028927 0.3707537 0.3416885 0.3631796 0.3354726 0.3999436 0.2666918 0.39359 0.3075115 0.3849487 0.3028927 0.3999436 0.2666918 0.417339 0.2292215 0.4093199 0.2695361 0.407588 0.1890776 0.417339 0.2292215 0.407588 0.2282612 0.407588 0.1890776 0.4093199 0.1478027 0.417339 0.1881172 0.3849487 0.1144462 0.4093199 0.1478027 0.3999436 0.150647 0.3631795 0.08186632 0.39359 0.1098273 0.3849487 0.1144462 0.3354726 0.0541594 0.3707537 0.07565039 0.3631795 0.08186632 0.3028927 0.03239023 0.3416885 0.04658526 0.3354726 0.0541594 0.3028927 0.03239023 0.2695361 0.008019089 0.3075115 0.02374899 0.2666919 0.01739537 0.2292216 0 0.2695361 0.008019089 0.2282612 0.009751021 0.1881173 0 0.2292216 0 0.150647 0.01739537 0.1881173 0 0.1890777 0.009751021 0.150647 0.01739537 0.1098273 0.02374905 0.1478028 0.008019089 0.08186632 0.05415946 0.1098273 0.02374905 0.1144462 0.03239029 0.05415946 0.08186638 0.07565039 0.04658538 0.08186632 0.05415946 0.03239023 0.1144462 0.04658532 0.07565045 0.05415946 0.08186638 0.01739537 0.1506471 0.02374899 0.1098274 0.03239023 0.1144462 0.009751021 0.1890777 0.00801903 0.1478028 0.01739537 0.1506471 0.009751021 0.1890777 0 0.2292217 0 0.1881173 0.009751021 0.2282612 0.008019089 0.2695361 0 0.2292217 0.4282999 0.7789517 0.4924135 0.7462291 0.4919945 0.77881 0.4280419 0.8151533 0.4919945 0.77881 0.4917364 0.8150116 0.8697161 0.8883659 0.9331526 0.8497942 0.9334107 0.8882243 0.4279547 0.8535841 0.4917364 0.8150116 0.4916493 0.8534424 0.8701351 0.9245659 0.9334107 0.8882243 0.9338297 0.9244243 0.4280419 0.8927675 0.4916493 0.8534424 0.4917364 0.8926259 0.8706991 0.9571447 0.9338297 0.9244243 0.9343937 0.957003 0.4282999 0.9311977 0.4917364 0.8926259 0.4919945 0.931056 0.9123315 0.02784991 0.97659 0 0.976026 0.02770829 0.428719 0.9673977 0.4919945 0.931056 0.4924135 0.967256 0.9119125 0.06043082 0.976026 0.02770829 0.9756069 0.06028914 0.429283 0.9999764 0.4924135 0.967256 0.4929775 0.9998348 0.9116544 0.0966323 0.9756069 0.06028914 0.9753489 0.09649068 0.5255911 0.7463709 0.5898495 0.7185209 0.5892856 0.7462292 0.9115672 0.1350632 0.9753489 0.09649068 0.9752618 0.1349216 0.525172 0.7789518 0.5892856 0.7462292 0.5888665 0.7788102 0.9116544 0.1742466 0.9752618 0.1349216 0.9753489 0.174105 0.9119125 0.2126768 0.9753489 0.174105 0.9756069 0.2125351 0.5697671 0.7185209 0.417339 0.5660929 0.5697671 0.3803586 0.9123315 0.2488768 0.9756069 0.2125351 0.9760261 0.2487351 0.9128955 0.2814555 0.9760261 0.2487351 0.97659 0.2813139 0.9343937 0.6756892 0.945288 0.7048198 0.9338297 0.7033974 0.9458456 0.6774279 0.955088 0.708921 0.945288 0.7048198 0.697602 0.02164459 0.6601681 0.01661646 0.6629917 0.007308542 0.6930169 0.03022283 0.6568375 0.02759587 0.6601681 0.01661646 0.9338297 0.7033974 0.9448737 0.7370287 0.9334106 0.7359783 0.945288 0.7048198 0.9546874 0.7400706 0.9448737 0.7370287 0.6262494 0 0.6601681 0.01661646 0.625296 0.009679913 0.6601681 0.01661646 0.6241714 0.02109819 0.625296 0.009679913 0.9331526 0.7721799 0.9448737 0.7370287 0.9446186 0.7728168 0.9446186 0.7728168 0.9546874 0.7400706 0.9544407 0.7746816 0.5887873 0 0.625296 0.009679913 0.5897407 0.009679913 0.5897407 0.009679913 0.6241714 0.02109819 0.5908653 0.02109819 0.9330654 0.8106108 0.9446186 0.7728168 0.9445325 0.810809 0.9446186 0.7728168 0.9543574 0.8114241 0.9445325 0.810809 0.5520451 0.007308483 0.5897407 0.009679913 0.5548686 0.0166164 0.5548686 0.0166164 0.5908653 0.02109819 0.5581992 0.02759587 0.9331526 0.8497942 0.9445325 0.810809 0.9446186 0.849545 0.9446186 0.849545 0.9543574 0.8114241 0.9544407 0.8488861 0.5174347 0.02164459 0.5548686 0.0166164 0.5220198 0.03022283 0.5220198 0.03022283 0.5581992 0.02759587 0.5274284 0.04034155 0.9334107 0.8882243 0.9446186 0.849545 0.9448737 0.8875364 0.9448737 0.8875364 0.9544407 0.8488861 0.9546874 0.8856279 0.4862861 0.0424574 0.5220198 0.03022283 0.4924567 0.04997628 0.4924567 0.04997628 0.5274284 0.04034155 0.4997354 0.0588454 0.9334107 0.8882243 0.945288 0.923323 0.9338297 0.9244243 0.945288 0.923323 0.9546874 0.8856279 0.955088 0.9202374 0.4862861 0.0424574 0.4673153 0.07511764 0.4597965 0.06894707 0.4924567 0.04997628 0.4761845 0.08239632 0.4673153 0.07511764 0.9338297 0.9244243 0.9458456 0.9555298 0.9343937 0.957003 0.945288 0.923323 0.9556272 0.9513849 0.9458456 0.9555298 0.4597965 0.06894707 0.4475619 0.1046807 0.4389836 0.1000956 0.4673153 0.07511764 0.4576806 0.1100893 0.4475619 0.1046807 0.976026 0.02770829 0.9880419 0.001738727 0.9874843 0.02913063 0.9874843 0.02913063 0.9978236 0.006740927 0.9972844 0.03323185 0.4246475 0.134706 0.4475619 0.1046807 0.4339554 0.1375295 0.4475619 0.1046807 0.4449349 0.1408601 0.4339554 0.1375295 0.976026 0.02770829 0.9870701 0.06133949 0.9756069 0.06028914 0.9870701 0.06133949 0.9972844 0.03323185 0.9968838 0.06438142 0.417339 0.1714482 0.4339554 0.1375295 0.427019 0.1724016 0.427019 0.1724016 0.4449349 0.1408601 0.4384372 0.1735262 0.9753489 0.09649068 0.9870701 0.06133949 0.986815 0.09712767 0.986815 0.09712767 0.9968838 0.06438142 0.996637 0.09899246 0.417339 0.2089103 0.427019 0.1724016 0.427019 0.2079569 0.427019 0.2079569 0.4384372 0.1735262 0.4384372 0.2068323 0.9752618 0.1349216 0.986815 0.09712767 0.9867289 0.1351197 0.986815 0.09712767 0.9965537 0.1357349 0.9867289 0.1351197 0.417339 0.2089103 0.4339554 0.242829 0.4246475 0.2456525 0.4339554 0.242829 0.4384372 0.2068323 0.4449349 0.2394984 0.9752618 0.1349216 0.986815 0.1738558 0.9753489 0.174105 0.986815 0.1738558 0.9965537 0.1357349 0.9966371 0.1731969 0.4389836 0.280263 0.4339554 0.242829 0.4475619 0.2756778 0.4339554 0.242829 0.4576806 0.2702693 0.4475619 0.2756778 0.9753489 0.174105 0.9870701 0.2118471 0.9756069 0.2125351 0.986815 0.1738558 0.9968838 0.2099387 0.9870701 0.2118471 0.4389836 0.280263 0.4673153 0.305241 0.4597964 0.3114116 0.4475619 0.2756778 0.4761844 0.2979622 0.4673153 0.305241 0.9756069 0.2125351 0.9874843 0.2476338 0.9760261 0.2487351 0.9870701 0.2118471 0.9972844 0.2445483 0.9874843 0.2476338 0.4597964 0.3114116 0.4924567 0.3303824 0.4862861 0.3379012 0.4673153 0.305241 0.4997354 0.3215132 0.4924567 0.3303824 0.9760261 0.2487351 0.9880419 0.2798406 0.97659 0.2813139 0.9874843 0.2476338 0.9978236 0.2756958 0.9880419 0.2798406 0.4862861 0.3379012 0.5220198 0.3501358 0.5174347 0.3587141 0.4924567 0.3303824 0.5274284 0.3400171 0.5220198 0.3501358 0.7259817 0.7474238 0.7374666 0.7185209 0.7374666 0.7459185 0.5038719 0.7476515 0.5142111 0.7252618 0.5136719 0.7517527 0.5520451 0.3730502 0.5220198 0.3501358 0.5548686 0.3637422 0.5548686 0.3637422 0.5274284 0.3400171 0.5581992 0.3527628 0.4924135 0.7462291 0.5034576 0.7798604 0.4919945 0.77881 0.5034576 0.7798604 0.5136719 0.7517527 0.5132712 0.7829023 0.5887873 0.3803586 0.5548686 0.3637422 0.5897407 0.3706787 0.5897407 0.3706787 0.5581992 0.3527628 0.5908653 0.3592604 0.4917364 0.8150116 0.5034576 0.7798604 0.5032025 0.8156486 0.5032025 0.8156486 0.5132712 0.7829023 0.5130245 0.8175134 0.6262494 0.3803586 0.5897407 0.3706787 0.625296 0.3706787 0.625296 0.3706787 0.5908653 0.3592604 0.6241714 0.3592604 0.4917364 0.8150116 0.5031163 0.8536407 0.4916493 0.8534424 0.5032025 0.8156486 0.5129412 0.8542558 0.5031163 0.8536407 0.6262494 0.3803586 0.6601681 0.3637422 0.6629915 0.3730502 0.625296 0.3706787 0.6568375 0.3527628 0.6601681 0.3637422 0.4916493 0.8534424 0.5032024 0.8923767 0.4917364 0.8926259 0.5031163 0.8536407 0.5130245 0.8917178 0.5032024 0.8923767 0.6629915 0.3730502 0.6930168 0.3501358 0.697602 0.3587141 0.6601681 0.3637422 0.6876083 0.3400171 0.6930168 0.3501358 0.4917364 0.8926259 0.5034576 0.930368 0.4919945 0.931056 0.5032024 0.8923767 0.5132712 0.9284595 0.5034576 0.930368 0.697602 0.3587141 0.72258 0.3303824 0.7287505 0.3379012 0.6930168 0.3501358 0.7153013 0.3215133 0.72258 0.3303824 0.4919945 0.931056 0.5038719 0.9661547 0.4924135 0.967256 0.5034576 0.930368 0.5136719 0.9630692 0.5038719 0.9661547 0.7287505 0.3379012 0.7477213 0.305241 0.7552402 0.3114116 0.72258 0.3303824 0.7388523 0.2979623 0.7477213 0.305241 0.4924135 0.967256 0.5044294 0.9983615 0.4929775 0.9998348 0.5044294 0.9983615 0.5136719 0.9630692 0.5142111 0.9942167 0.7552402 0.3114116 0.7674748 0.2756779 0.7760531 0.280263 0.7674748 0.2756779 0.7388523 0.2979623 0.7573561 0.2702693 0.5898495 0.7185209 0.600744 0.7476516 0.5892856 0.7462292 0.6013014 0.7202597 0.610544 0.7517529 0.600744 0.7476516 0.7760531 0.280263 0.7810812 0.242829 0.7903892 0.2456525 0.7674748 0.2756779 0.7701018 0.2394984 0.7810812 0.242829 0.5888665 0.7788102 0.600744 0.7476516 0.6003296 0.7798605 0.600744 0.7476516 0.6101433 0.7829024 0.6003296 0.7798605 0.7903892 0.2456525 0.7880178 0.2079569 0.7976976 0.2089103 0.7810812 0.242829 0.7765995 0.2068323 0.7880178 0.2079569 0.5886085 0.8150116 0.6003296 0.7798605 0.6000745 0.8156486 0.6003296 0.7798605 0.6098966 0.8175134 0.6000745 0.8156486 0.7976976 0.2089103 0.7880178 0.1724017 0.7976977 0.1714483 0.7880178 0.2079569 0.7765995 0.1735263 0.7880178 0.1724017 0.5885214 0.8534425 0.6000745 0.8156486 0.5999884 0.8536407 0.6000745 0.8156486 0.6098133 0.8542559 0.5999884 0.8536407 0.7976977 0.1714483 0.7810813 0.1375296 0.7903892 0.1347061 0.7880178 0.1724017 0.7701018 0.1408601 0.7810813 0.1375296 0.5885214 0.8534425 0.6000745 0.8923768 0.5886085 0.8926259 0.6000745 0.8923768 0.6098133 0.8542559 0.6098966 0.8917179 0.7760531 0.1000956 0.7810813 0.1375296 0.7674748 0.1046808 0.7674748 0.1046808 0.7701018 0.1408601 0.7388523 0.08239632 0.5888665 0.9310561 0.6000745 0.8923768 0.6003296 0.9303681 0.6000745 0.8923768 0.6101433 0.9284597 0.6003296 0.9303681 0.7760531 0.1000956 0.7477214 0.07511764 0.7552403 0.06894707 0.7477214 0.07511764 0.7388523 0.08239632 0.7388523 0.08239632 0.5892856 0.9672561 0.6003296 0.9303681 0.600744 0.9661548 0.6003296 0.9303681 0.610544 0.9630693 0.600744 0.9661548 0.7552403 0.06894707 0.7225801 0.04997628 0.7287506 0.0424574 0.7225801 0.04997628 0.7388523 0.08239632 0.7153013 0.0588454 0.5892856 0.9672561 0.6013014 0.9983615 0.5898496 0.9998348 0.600744 0.9661548 0.6110832 0.9942167 0.6013014 0.9983615 0.7287506 0.0424574 0.6930169 0.03022283 0.697602 0.02164459 0.7225801 0.04997628 0.6876083 0.04034155 0.6930169 0.03022283 0.8600834 0.6758544 0.8701351 0.7035391 0.8595194 0.7035627 0.5888665 0.9310561 0.5255911 0.9673978 0.525172 0.9311978 0.5145562 0.9312214 0.5255911 0.9673978 0.5149753 0.9674214 0.9331526 0.7721799 0.8693709 0.8107524 0.869458 0.7723215 0.8588423 0.7723451 0.8693709 0.8107524 0.8587551 0.810776 0.5886085 0.8926259 0.525172 0.9311978 0.5249139 0.8927676 0.4186672 0.7186861 0.428719 0.7463707 0.4181032 0.7463943 0.5142982 0.8927912 0.525172 0.9311978 0.5145562 0.9312214 0.5892856 0.9672561 0.526155 0.9999765 0.5255911 0.9673978 0.8697161 0.73612 0.9331526 0.7721799 0.869458 0.7723215 0.5149753 0.9674214 0.526155 0.9999765 0.5155393 1 0.5885214 0.8534425 0.5249139 0.8927676 0.5248268 0.8535842 0.8701351 0.7035391 0.9334106 0.7359783 0.8697161 0.73612 0.9017158 0.2489004 0.9128955 0.2814555 0.9022797 0.2814791 0.5142111 0.8536078 0.5249139 0.8927676 0.5142982 0.8927912 0.5249139 0.8151533 0.5885214 0.8534425 0.5248268 0.8535842 0.9012967 0.2127003 0.9123315 0.2488768 0.9017158 0.2489004 0.5142982 0.8151769 0.5248268 0.8535842 0.5142111 0.8536078 0.9010386 0.1742702 0.9119125 0.2126768 0.9012967 0.2127003 0.5145562 0.7789754 0.5249139 0.8151533 0.5142982 0.8151769 0.9009515 0.1350868 0.9116544 0.1742466 0.9010386 0.1742702 0.5149753 0.7463945 0.525172 0.7789518 0.5145562 0.7789754 0.9010386 0.0966559 0.9115672 0.1350632 0.9009515 0.1350868 0.5155393 0.7186862 0.5255911 0.7463709 0.5149753 0.7463945 0.9012967 0.06045442 0.9116544 0.0966323 0.9010386 0.0966559 0.4181032 0.9674213 0.429283 0.9999764 0.4186672 1 0.9017157 0.02787351 0.9119125 0.06043082 0.9012967 0.06045442 0.4176841 0.9312213 0.428719 0.9673977 0.4181032 0.9674213 0.9022797 1.65224e-4 0.9123315 0.02784991 0.9017157 0.02787351 0.4174261 0.8927911 0.4282999 0.9311977 0.4176841 0.9312213 0.8595194 0.9245896 0.8706991 0.9571447 0.8600834 0.9571684 0.417339 0.8536077 0.4280419 0.8927675 0.4174261 0.8927911 0.8591004 0.8883896 0.8701351 0.9245659 0.8595194 0.9245896 0.4174261 0.8151769 0.4279547 0.8535841 0.417339 0.8536077 0.8591004 0.7361436 0.869458 0.7723215 0.8588423 0.7723451 0.8588423 0.8499594 0.8697161 0.8883659 0.8591004 0.8883896 0.4176841 0.7789753 0.4280419 0.8151533 0.4174261 0.8151769 0.8587551 0.810776 0.869458 0.8499358 0.8588423 0.8499594 0.525172 0.7789518 0.5886085 0.8150116 0.5249139 0.8151533 0.8595194 0.7035627 0.8697161 0.73612 0.8591004 0.7361436 0.4181032 0.7463943 0.4282999 0.7789517 0.4176841 0.7789753 0.428719 0.7463707 0.4929774 0.7185209 0.4924135 0.7462291 0.9343937 0.6756892 0.8701351 0.7035391 0.8706991 0.6758308 0.962009 0.3803586 0.9614173 0.4094251 0.8595569 0.4096516 0.9614173 0.4094251 0.9609777 0.4436032 0.8591173 0.4438297 0.9609777 0.4436032 0.9607071 0.4815793 0.8588466 0.4818058 0.9607071 0.4815793 0.9606156 0.521894 0.8587551 0.5221206 0.9606156 0.521894 0.9607071 0.5629982 0.8588466 0.5632247 0.9607071 0.5629982 0.9609777 0.6033123 0.8591173 0.6035388 0.9609777 0.6033123 0.9614174 0.6412868 0.8595569 0.6415133 0.9614174 0.6412868 0.962009 0.6754625 0.8601485 0.6756891 0.8587551 0.3803586 0.8581635 0.4094251 0.7563031 0.4096517 0.8581635 0.4094251 0.857724 0.4436032 0.7558634 0.4438297 0.857724 0.4436032 0.8574532 0.4815793 0.7555927 0.4818058 0.8574532 0.4815793 0.8573618 0.5218941 0.7555013 0.5221207 0.8573618 0.5218941 0.8574532 0.5629984 0.7555927 0.5632249 0.8574532 0.5629984 0.857724 0.6033123 0.7558634 0.6035388 0.857724 0.6033123 0.8581635 0.6412869 0.7563031 0.6415134 0.8581635 0.6412869 0.8587552 0.6754626 0.7568947 0.6756892 0.7259817 0.8203817 0.6969166 0.8210379 0.6969166 0.7191771 0.7555013 0.9417273 0.7560169 0.9075503 0.8578777 0.9075503 0.7560169 0.9075503 0.7563721 0.8695749 0.8582328 0.8695749 0.7563721 0.8695749 0.7565531 0.8292605 0.8584139 0.8292605 0.7565531 0.8292605 0.7565531 0.7881562 0.8584139 0.7881562 0.7565531 0.7881562 0.7563721 0.7478417 0.8582328 0.7478417 0.7563721 0.7478417 0.7560169 0.7098662 0.8578777 0.7098662 0.7560169 0.7098662 0.7555013 0.6756892 0.857362 0.6756892 0.9009514 0 0.9003598 0.02906656 0.7984993 0.02929306 0.9003598 0.02906656 0.8999202 0.06324458 0.7980597 0.06347113 0.8999202 0.06324458 0.8996495 0.1012206 0.797789 0.1014471 0.8996495 0.1012206 0.8995581 0.1415354 0.7976976 0.1417619 0.8995581 0.1415354 0.8996495 0.1826396 0.797789 0.1828662 0.8996495 0.1826396 0.8999202 0.2229536 0.7980597 0.2231802 0.869458 0.8499358 0.8693709 0.8107524 0.9330654 0.8106108 0.8999202 0.2229536 0.9003598 0.2609282 0.7984993 0.2611548 0.9003598 0.2609282 0.9009514 0.295104 0.7990909 0.2953305 0.02374899 0.7248505 0.00801903 0.6868751 0 0.6465607 0 0.6465607 0 0.6054564 0.00801903 0.5651419 0.00801903 0.5651419 0.02374893 0.5271664 0.04658526 0.4929895 0.04658526 0.4929895 0.07565039 0.4639243 0.1098273 0.441088 0.1098273 0.441088 0.1478028 0.4253581 0.1881172 0.417339 0.1881172 0.417339 0.2292215 0.417339 0.2695361 0.425358 0.2695361 0.425358 0.3075115 0.441088 0.3416885 0.4639243 0.3416885 0.4639243 0.3707536 0.4929894 0.39359 0.5271664 0.39359 0.5271664 0.4093199 0.5651418 0.417339 0.6054562 0.417339 0.6054562 0.417339 0.6465606 0.4093199 0.6868751 0.4093199 0.6868751 0.39359 0.7248505 0.3707537 0.7590274 0.3707537 0.7590274 0.3416886 0.7880926 0.3075116 0.810929 0.3075116 0.810929 0.2695361 0.8266589 0.2292216 0.8346779 0.2292216 0.8346779 0.1881173 0.8346779 0.3075116 0.810929 0.1881173 0.8346779 0.1478028 0.826659 0.3075116 0.810929 0.1478028 0.826659 0.1098274 0.810929 0.02374899 0.7248505 0.1098274 0.810929 0.07565045 0.7880927 0.02374899 0.7248505 0.07565045 0.7880927 0.04658532 0.7590276 0.02374899 0.7248505 0.02374899 0.7248505 0 0.6465607 0.1098273 0.441088 0 0.6465607 0.00801903 0.5651419 0.1098273 0.441088 0.00801903 0.5651419 0.04658526 0.4929895 0.1098273 0.441088 0.1098273 0.441088 0.1881172 0.417339 0.2695361 0.425358 0.2695361 0.425358 0.3416885 0.4639243 0.1098273 0.441088 0.3416885 0.4639243 0.39359 0.5271664 0.1098273 0.441088 0.39359 0.5271664 0.417339 0.6054562 0.3075116 0.810929 0.417339 0.6054562 0.4093199 0.6868751 0.3075116 0.810929 0.4093199 0.6868751 0.3707537 0.7590274 0.3075116 0.810929 0.3075116 0.810929 0.1478028 0.826659 0.02374899 0.7248505 0.02374899 0.7248505 0.1098273 0.441088 0.3075116 0.810929 0.01739537 0.2666919 0.03239029 0.3028928 0.02374899 0.3075116 0.05415946 0.3354727 0.04658532 0.3416886 0.02374899 0.3075116 0.08186638 0.3631796 0.07565051 0.3707537 0.04658532 0.3416886 0.1144463 0.3849487 0.1098274 0.39359 0.07565051 0.3707537 0.1506471 0.3999436 0.1478028 0.4093199 0.1098274 0.39359 0.1506471 0.3999436 0.1890777 0.407588 0.1881173 0.417339 0.1890777 0.407588 0.2282612 0.407588 0.2292217 0.417339 0.2666919 0.3999436 0.2695361 0.4093199 0.2292217 0.417339 0.2666919 0.3999436 0.3028928 0.3849487 0.3075116 0.39359 0.3354727 0.3631795 0.3416886 0.3707537 0.3075116 0.39359 0.3354727 0.3631795 0.3631796 0.3354726 0.3707537 0.3416885 0.3849487 0.3028927 0.39359 0.3075115 0.3707537 0.3416885 0.3999436 0.2666918 0.4093199 0.2695361 0.39359 0.3075115 0.3999436 0.2666918 0.407588 0.2282612 0.417339 0.2292215 0.407588 0.1890776 0.417339 0.1881172 0.417339 0.2292215 0.407588 0.1890776 0.3999436 0.150647 0.4093199 0.1478027 0.3849487 0.1144462 0.39359 0.1098273 0.4093199 0.1478027 0.3631795 0.08186632 0.3707537 0.07565039 0.39359 0.1098273 0.3354726 0.0541594 0.3416885 0.04658526 0.3707537 0.07565039 0.3028927 0.03239023 0.3075115 0.02374899 0.3416885 0.04658526 0.3028927 0.03239023 0.2666919 0.01739537 0.2695361 0.008019089 0.2666919 0.01739537 0.2282612 0.009751021 0.2292216 0 0.2282612 0.009751021 0.1890777 0.009751021 0.1881173 0 0.150647 0.01739537 0.1478028 0.008019089 0.1881173 0 0.150647 0.01739537 0.1144462 0.03239029 0.1098273 0.02374905 0.08186632 0.05415946 0.07565039 0.04658538 0.1098273 0.02374905 0.05415946 0.08186638 0.04658532 0.07565045 0.07565039 0.04658538 0.03239023 0.1144462 0.02374899 0.1098274 0.04658532 0.07565045 0.01739537 0.1506471 0.00801903 0.1478028 0.02374899 0.1098274 0.009751021 0.1890777 0 0.1881173 0.00801903 0.1478028 0.009751021 0.1890777 0.009751021 0.2282612 0 0.2292217 0.009751021 0.2282612 0.01739537 0.2666919 0.008019089 0.2695361 0.4282999 0.7789517 0.428719 0.7463707 0.4924135 0.7462291 0.4280419 0.8151533 0.4282999 0.7789517 0.4919945 0.77881 0.8697161 0.8883659 0.869458 0.8499358 0.9331526 0.8497942 0.4279547 0.8535841 0.4280419 0.8151533 0.4917364 0.8150116 0.8701351 0.9245659 0.8697161 0.8883659 0.9334107 0.8882243 0.4280419 0.8927675 0.4279547 0.8535841 0.4916493 0.8534424 0.8706991 0.9571447 0.8701351 0.9245659 0.9338297 0.9244243 0.4282999 0.9311977 0.4280419 0.8927675 0.4917364 0.8926259 0.9123315 0.02784991 0.9128955 1.41621e-4 0.97659 0 0.428719 0.9673977 0.4282999 0.9311977 0.4919945 0.931056 0.9119125 0.06043082 0.9123315 0.02784991 0.976026 0.02770829 0.429283 0.9999764 0.428719 0.9673977 0.4924135 0.967256 0.9116544 0.0966323 0.9119125 0.06043082 0.9756069 0.06028914 0.5255911 0.7463709 0.526155 0.7186626 0.5898495 0.7185209 0.9115672 0.1350632 0.9116544 0.0966323 0.9753489 0.09649068 0.525172 0.7789518 0.5255911 0.7463709 0.5892856 0.7462292 0.9116544 0.1742466 0.9115672 0.1350632 0.9752618 0.1349216 0.9119125 0.2126768 0.9116544 0.1742466 0.9753489 0.174105 0.6357393 0.7120233 0.6030731 0.7185209 0.5697671 0.7185209 0.537101 0.7120233 0.5063302 0.6992776 0.5063302 0.6992776 0.5063302 0.6992776 0.4550862 0.6572228 0.4365823 0.6295297 0.4365823 0.6295297 0.4238367 0.598759 0.417339 0.5660929 0.417339 0.5660929 0.417339 0.5327868 0.4550862 0.4416568 0.417339 0.5327868 0.4238367 0.5001206 0.4550862 0.4416568 0.4238367 0.5001206 0.4365824 0.4693498 0.4550862 0.4416568 0.4550862 0.4416568 0.4786372 0.4181059 0.5063301 0.3996021 0.5063301 0.3996021 0.5371009 0.3868564 0.5697671 0.3803586 0.5697671 0.3803586 0.6030731 0.3803586 0.6357393 0.3868563 0.6357393 0.3868563 0.6665101 0.3996021 0.5697671 0.3803586 0.6665101 0.3996021 0.694203 0.4181059 0.5697671 0.3803586 0.694203 0.4181059 0.717754 0.4416568 0.7555013 0.5327867 0.717754 0.4416568 0.7362579 0.4693499 0.7555013 0.5327867 0.7362579 0.4693499 0.7490036 0.5001206 0.7555013 0.5327867 0.7555013 0.5327867 0.7555013 0.5660929 0.7490035 0.598759 0.7490035 0.598759 0.7362579 0.6295297 0.7177541 0.6572227 0.7177541 0.6572227 0.6942031 0.6807737 0.5697671 0.7185209 0.6942031 0.6807737 0.6665101 0.6992775 0.5697671 0.7185209 0.6665101 0.6992775 0.6357393 0.7120233 0.5697671 0.7185209 0.5697671 0.7185209 0.537101 0.7120233 0.5063302 0.6992776 0.5063302 0.6992776 0.4365823 0.6295297 0.5697671 0.7185209 0.4365823 0.6295297 0.417339 0.5660929 0.5697671 0.7185209 0.4550862 0.4416568 0.5063301 0.3996021 0.417339 0.5660929 0.5063301 0.3996021 0.5697671 0.3803586 0.417339 0.5660929 0.7555013 0.5327867 0.7490035 0.598759 0.7177541 0.6572227 0.5697671 0.3803586 0.694203 0.4181059 0.7555013 0.5327867 0.7555013 0.5327867 0.7177541 0.6572227 0.5697671 0.3803586 0.7177541 0.6572227 0.5697671 0.7185209 0.5697671 0.3803586 0.9123315 0.2488768 0.9119125 0.2126768 0.9756069 0.2125351 0.9128955 0.2814555 0.9123315 0.2488768 0.9760261 0.2487351 0.9343937 0.6756892 0.9458456 0.6774279 0.945288 0.7048198 0.9458456 0.6774279 0.9556272 0.6824301 0.955088 0.708921 0.697602 0.02164459 0.6930169 0.03022283 0.6601681 0.01661646 0.6930169 0.03022283 0.6876083 0.04034155 0.6568375 0.02759587 0.9338297 0.7033974 0.945288 0.7048198 0.9448737 0.7370287 0.945288 0.7048198 0.955088 0.708921 0.9546874 0.7400706 0.6262494 0 0.6629917 0.007308542 0.6601681 0.01661646 0.6601681 0.01661646 0.6568375 0.02759587 0.6241714 0.02109819 0.9331526 0.7721799 0.9334106 0.7359783 0.9448737 0.7370287 0.9446186 0.7728168 0.9448737 0.7370287 0.9546874 0.7400706 0.5887873 0 0.6262494 0 0.625296 0.009679913 0.5897407 0.009679913 0.625296 0.009679913 0.6241714 0.02109819 0.9330654 0.8106108 0.9331526 0.7721799 0.9446186 0.7728168 0.9446186 0.7728168 0.9544407 0.7746816 0.9543574 0.8114241 0.5520451 0.007308483 0.5887873 0 0.5897407 0.009679913 0.5548686 0.0166164 0.5897407 0.009679913 0.5908653 0.02109819 0.9331526 0.8497942 0.9330654 0.8106108 0.9445325 0.810809 0.9446186 0.849545 0.9445325 0.810809 0.9543574 0.8114241 0.5174347 0.02164459 0.5520451 0.007308483 0.5548686 0.0166164 0.5220198 0.03022283 0.5548686 0.0166164 0.5581992 0.02759587 0.9334107 0.8882243 0.9331526 0.8497942 0.9446186 0.849545 0.9448737 0.8875364 0.9446186 0.849545 0.9544407 0.8488861 0.4862861 0.0424574 0.5174347 0.02164459 0.5220198 0.03022283 0.4924567 0.04997628 0.5220198 0.03022283 0.5274284 0.04034155 0.9334107 0.8882243 0.9448737 0.8875364 0.945288 0.923323 0.945288 0.923323 0.9448737 0.8875364 0.9546874 0.8856279 0.4862861 0.0424574 0.4924567 0.04997628 0.4673153 0.07511764 0.4924567 0.04997628 0.4997354 0.0588454 0.4761845 0.08239632 0.9338297 0.9244243 0.945288 0.923323 0.9458456 0.9555298 0.945288 0.923323 0.955088 0.9202374 0.9556272 0.9513849 0.4597965 0.06894707 0.4673153 0.07511764 0.4475619 0.1046807 0.4673153 0.07511764 0.4761845 0.08239632 0.4576806 0.1100893 0.976026 0.02770829 0.97659 0 0.9880419 0.001738727 0.9874843 0.02913063 0.9880419 0.001738727 0.9978236 0.006740927 0.4246475 0.134706 0.4389836 0.1000956 0.4475619 0.1046807 0.4475619 0.1046807 0.4576806 0.1100893 0.4449349 0.1408601 0.976026 0.02770829 0.9874843 0.02913063 0.9870701 0.06133949 0.9870701 0.06133949 0.9874843 0.02913063 0.9972844 0.03323185 0.417339 0.1714482 0.4246475 0.134706 0.4339554 0.1375295 0.427019 0.1724016 0.4339554 0.1375295 0.4449349 0.1408601 0.9753489 0.09649068 0.9756069 0.06028914 0.9870701 0.06133949 0.986815 0.09712767 0.9870701 0.06133949 0.9968838 0.06438142 0.417339 0.2089103 0.417339 0.1714482 0.427019 0.1724016 0.427019 0.2079569 0.427019 0.1724016 0.4384372 0.1735262 0.9752618 0.1349216 0.9753489 0.09649068 0.986815 0.09712767 0.986815 0.09712767 0.996637 0.09899246 0.9965537 0.1357349 0.417339 0.2089103 0.427019 0.2079569 0.4339554 0.242829 0.4339554 0.242829 0.427019 0.2079569 0.4384372 0.2068323 0.9752618 0.1349216 0.9867289 0.1351197 0.986815 0.1738558 0.986815 0.1738558 0.9867289 0.1351197 0.9965537 0.1357349 0.4389836 0.280263 0.4246475 0.2456525 0.4339554 0.242829 0.4339554 0.242829 0.4449349 0.2394984 0.4576806 0.2702693 0.9753489 0.174105 0.986815 0.1738558 0.9870701 0.2118471 0.986815 0.1738558 0.9966371 0.1731969 0.9968838 0.2099387 0.4389836 0.280263 0.4475619 0.2756778 0.4673153 0.305241 0.4475619 0.2756778 0.4576806 0.2702693 0.4761844 0.2979622 0.9756069 0.2125351 0.9870701 0.2118471 0.9874843 0.2476338 0.9870701 0.2118471 0.9968838 0.2099387 0.9972844 0.2445483 0.4597964 0.3114116 0.4673153 0.305241 0.4924567 0.3303824 0.4673153 0.305241 0.4761844 0.2979622 0.4997354 0.3215132 0.9760261 0.2487351 0.9874843 0.2476338 0.9880419 0.2798406 0.9874843 0.2476338 0.9972844 0.2445483 0.9978236 0.2756958 0.4862861 0.3379012 0.4924567 0.3303824 0.5220198 0.3501358 0.4924567 0.3303824 0.4997354 0.3215132 0.5274284 0.3400171 0.7259817 0.7474238 0.7259817 0.7197098 0.7374666 0.7185209 0.5038719 0.7476515 0.5044294 0.7202596 0.5142111 0.7252618 0.5520451 0.3730502 0.5174347 0.3587141 0.5220198 0.3501358 0.5548686 0.3637422 0.5220198 0.3501358 0.5274284 0.3400171 0.4924135 0.7462291 0.5038719 0.7476515 0.5034576 0.7798604 0.5034576 0.7798604 0.5038719 0.7476515 0.5136719 0.7517527 0.5887873 0.3803586 0.5520451 0.3730502 0.5548686 0.3637422 0.5897407 0.3706787 0.5548686 0.3637422 0.5581992 0.3527628 0.4917364 0.8150116 0.4919945 0.77881 0.5034576 0.7798604 0.5032025 0.8156486 0.5034576 0.7798604 0.5132712 0.7829023 0.6262494 0.3803586 0.5887873 0.3803586 0.5897407 0.3706787 0.625296 0.3706787 0.5897407 0.3706787 0.5908653 0.3592604 0.4917364 0.8150116 0.5032025 0.8156486 0.5031163 0.8536407 0.5032025 0.8156486 0.5130245 0.8175134 0.5129412 0.8542558 0.6262494 0.3803586 0.625296 0.3706787 0.6601681 0.3637422 0.625296 0.3706787 0.6241714 0.3592604 0.6568375 0.3527628 0.4916493 0.8534424 0.5031163 0.8536407 0.5032024 0.8923767 0.5031163 0.8536407 0.5129412 0.8542558 0.5130245 0.8917178 0.6629915 0.3730502 0.6601681 0.3637422 0.6930168 0.3501358 0.6601681 0.3637422 0.6568375 0.3527628 0.6876083 0.3400171 0.4917364 0.8926259 0.5032024 0.8923767 0.5034576 0.930368 0.5032024 0.8923767 0.5130245 0.8917178 0.5132712 0.9284595 0.697602 0.3587141 0.6930168 0.3501358 0.72258 0.3303824 0.6930168 0.3501358 0.6876083 0.3400171 0.7153013 0.3215133 0.4919945 0.931056 0.5034576 0.930368 0.5038719 0.9661547 0.5034576 0.930368 0.5132712 0.9284595 0.5136719 0.9630692 0.7287505 0.3379012 0.72258 0.3303824 0.7477213 0.305241 0.72258 0.3303824 0.7153013 0.3215133 0.7388523 0.2979623 0.4924135 0.967256 0.5038719 0.9661547 0.5044294 0.9983615 0.5044294 0.9983615 0.5038719 0.9661547 0.5136719 0.9630692 0.7552402 0.3114116 0.7477213 0.305241 0.7674748 0.2756779 0.7674748 0.2756779 0.7477213 0.305241 0.7388523 0.2979623 0.5898495 0.7185209 0.6013014 0.7202597 0.600744 0.7476516 0.6013014 0.7202597 0.6110832 0.7252619 0.610544 0.7517529 0.7760531 0.280263 0.7674748 0.2756779 0.7810812 0.242829 0.7674748 0.2756779 0.7573561 0.2702693 0.7701018 0.2394984 0.5888665 0.7788102 0.5892856 0.7462292 0.600744 0.7476516 0.600744 0.7476516 0.610544 0.7517529 0.6101433 0.7829024 0.7903892 0.2456525 0.7810812 0.242829 0.7880178 0.2079569 0.7810812 0.242829 0.7701018 0.2394984 0.7765995 0.2068323 0.5886085 0.8150116 0.5888665 0.7788102 0.6003296 0.7798605 0.6003296 0.7798605 0.6101433 0.7829024 0.6098966 0.8175134 0.7976976 0.2089103 0.7880178 0.2079569 0.7880178 0.1724017 0.7880178 0.2079569 0.7765995 0.2068323 0.7765995 0.1735263 0.5885214 0.8534425 0.5886085 0.8150116 0.6000745 0.8156486 0.6000745 0.8156486 0.6098966 0.8175134 0.6098133 0.8542559 0.7976977 0.1714483 0.7880178 0.1724017 0.7810813 0.1375296 0.7880178 0.1724017 0.7765995 0.1735263 0.7701018 0.1408601 0.5885214 0.8534425 0.5999884 0.8536407 0.6000745 0.8923768 0.6000745 0.8923768 0.5999884 0.8536407 0.6098133 0.8542559 0.7760531 0.1000956 0.7903892 0.1347061 0.7810813 0.1375296 0.7674748 0.1046808 0.7810813 0.1375296 0.7701018 0.1408601 0.5888665 0.9310561 0.5886085 0.8926259 0.6000745 0.8923768 0.6000745 0.8923768 0.6098966 0.8917179 0.6101433 0.9284597 0.7760531 0.1000956 0.7674748 0.1046808 0.7477214 0.07511764 0.7477214 0.07511764 0.7674748 0.1046808 0.7388523 0.08239632 0.5892856 0.9672561 0.5888665 0.9310561 0.6003296 0.9303681 0.6003296 0.9303681 0.6101433 0.9284597 0.610544 0.9630693 0.7552403 0.06894707 0.7477214 0.07511764 0.7225801 0.04997628 0.7225801 0.04997628 0.7477214 0.07511764 0.7388523 0.08239632 0.5892856 0.9672561 0.600744 0.9661548 0.6013014 0.9983615 0.600744 0.9661548 0.610544 0.9630693 0.6110832 0.9942167 0.7287506 0.0424574 0.7225801 0.04997628 0.6930169 0.03022283 0.7225801 0.04997628 0.7153013 0.0588454 0.6876083 0.04034155 0.8600834 0.6758544 0.8706991 0.6758308 0.8701351 0.7035391 0.5888665 0.9310561 0.5892856 0.9672561 0.5255911 0.9673978 0.5145562 0.9312214 0.525172 0.9311978 0.5255911 0.9673978 0.9331526 0.7721799 0.9330654 0.8106108 0.8693709 0.8107524 0.8588423 0.7723451 0.869458 0.7723215 0.8693709 0.8107524 0.5886085 0.8926259 0.5888665 0.9310561 0.525172 0.9311978 0.4186672 0.7186861 0.429283 0.7186625 0.428719 0.7463707 0.5142982 0.8927912 0.5249139 0.8927676 0.525172 0.9311978 0.5892856 0.9672561 0.5898496 0.9998348 0.526155 0.9999765 0.8697161 0.73612 0.9334106 0.7359783 0.9331526 0.7721799 0.5149753 0.9674214 0.5255911 0.9673978 0.526155 0.9999765 0.5885214 0.8534425 0.5886085 0.8926259 0.5249139 0.8927676 0.8701351 0.7035391 0.9338297 0.7033974 0.9334106 0.7359783 0.9017158 0.2489004 0.9123315 0.2488768 0.9128955 0.2814555 0.5142111 0.8536078 0.5248268 0.8535842 0.5249139 0.8927676 0.5249139 0.8151533 0.5886085 0.8150116 0.5885214 0.8534425 0.9012967 0.2127003 0.9119125 0.2126768 0.9123315 0.2488768 0.5142982 0.8151769 0.5249139 0.8151533 0.5248268 0.8535842 0.9010386 0.1742702 0.9116544 0.1742466 0.9119125 0.2126768 0.5145562 0.7789754 0.525172 0.7789518 0.5249139 0.8151533 0.9009515 0.1350868 0.9115672 0.1350632 0.9116544 0.1742466 0.5149753 0.7463945 0.5255911 0.7463709 0.525172 0.7789518 0.9010386 0.0966559 0.9116544 0.0966323 0.9115672 0.1350632 0.5155393 0.7186862 0.526155 0.7186626 0.5255911 0.7463709 0.9012967 0.06045442 0.9119125 0.06043082 0.9116544 0.0966323 0.4181032 0.9674213 0.428719 0.9673977 0.429283 0.9999764 0.9017157 0.02787351 0.9123315 0.02784991 0.9119125 0.06043082 0.4176841 0.9312213 0.4282999 0.9311977 0.428719 0.9673977 0.9022797 1.65224e-4 0.9128955 1.41621e-4 0.9123315 0.02784991 0.4174261 0.8927911 0.4280419 0.8927675 0.4282999 0.9311977 0.8595194 0.9245896 0.8701351 0.9245659 0.8706991 0.9571447 0.417339 0.8536077 0.4279547 0.8535841 0.4280419 0.8927675 0.8591004 0.8883896 0.8697161 0.8883659 0.8701351 0.9245659 0.4174261 0.8151769 0.4280419 0.8151533 0.4279547 0.8535841 0.8591004 0.7361436 0.8697161 0.73612 0.869458 0.7723215 0.8588423 0.8499594 0.869458 0.8499358 0.8697161 0.8883659 0.4176841 0.7789753 0.4282999 0.7789517 0.4280419 0.8151533 0.8587551 0.810776 0.8693709 0.8107524 0.869458 0.8499358 0.525172 0.7789518 0.5888665 0.7788102 0.5886085 0.8150116 0.8595194 0.7035627 0.8701351 0.7035391 0.8697161 0.73612 0.4181032 0.7463943 0.428719 0.7463707 0.4282999 0.7789517 0.428719 0.7463707 0.429283 0.7186625 0.4929774 0.7185209 0.9343937 0.6756892 0.9338297 0.7033974 0.8701351 0.7035391</float_array>
          <technique_common>
            <accessor source="#Cylinder-mesh-map-0-array" count="1716" stride="2">
              <param name="S" type="float"/>
              <param name="T" type="float"/>
            </accessor>
          </technique_common>
        </source>
        <vertices id="Cylinder-mesh-vertices">
          <input semantic="POSITION" source="#Cylinder-mesh-positions"/>
        </vertices>
        <triangles material="Material-material" count="572">
          <input semantic="VERTEX" source="#Cylinder-mesh-vertices" offset="0"/>
          <input semantic="NORMAL" source="#Cylinder-mesh-normals" offset="1"/>
          <input semantic="TEXCOORD" source="#Cylinder-mesh-map-0" offset="2" set="0"/>
          <p>65 0 0 2 1 1 0 2 2 64 3 3 4 4 4 2 1 5 66 5 6 6 6 7 4 4 8 67 7 9 8 8 10 6 6 11 68 9 12 10 10 13 8 8 14 69 11 15 12 12 16 10 10 17 70 13 18 14 14 19 12 12 20 71 15 21 16 16 22 14 14 23 72 17 24 18 18 25 16 16 26 73 19 27 20 20 28 18 18 29 74 21 30 22 22 31 20 20 32 75 23 33 24 24 34 22 22 35 76 25 36 26 26 37 24 24 38 77 27 39 28 28 40 26 26 41 78 29 42 30 30 43 28 28 44 79 31 45 32 32 46 30 30 47 80 33 48 34 34 49 32 32 50 81 34 51 36 35 52 34 34 53 82 36 54 38 37 55 36 35 56 83 38 57 40 39 58 38 37 59 84 40 60 42 41 61 40 39 62 85 41 63 44 42 64 42 41 65 86 42 66 46 43 67 44 42 68 87 43 69 48 44 70 46 43 71 88 45 72 50 46 73 48 44 74 89 47 75 52 48 76 50 46 77 90 49 78 54 50 79 52 48 80 91 51 81 56 52 82 54 50 83 92 52 84 58 53 85 56 52 86 93 54 87 60 55 88 58 53 89 262 56 90 117 57 91 122 58 92 94 59 93 62 60 94 60 55 95 95 61 96 0 2 97 62 60 98 14 62 99 30 63 100 46 64 101 1 65 102 64 66 103 65 67 104 5 68 105 64 66 106 3 69 107 7 70 108 66 65 109 5 68 110 9 71 111 67 72 112 7 70 113 11 73 114 68 74 115 9 71 116 11 73 117 70 75 118 69 76 119 13 77 120 71 78 121 70 75 122 17 79 123 71 78 124 15 80 125 17 79 126 73 81 127 72 65 128 21 82 129 73 81 130 19 83 131 21 82 132 75 84 133 74 65 134 25 85 135 75 84 136 23 86 137 27 87 138 76 88 139 25 85 140 27 87 141 78 89 142 77 90 143 31 91 144 78 89 145 29 65 146 31 91 147 80 92 148 79 93 149 35 94 150 80 92 151 33 65 152 37 95 153 81 96 154 35 94 155 39 97 156 82 98 157 37 95 158 41 99 159 83 100 160 39 97 161 41 99 162 85 101 163 84 65 164 43 102 165 86 103 166 85 101 167 45 104 168 87 105 169 86 103 170 49 106 171 87 105 172 47 107 173 49 106 174 89 108 175 88 65 176 53 109 177 89 108 178 51 110 179 55 111 180 90 112 181 53 109 182 57 113 183 91 114 184 55 111 185 59 115 186 92 116 187 57 113 188 61 117 189 93 118 190 59 115 191 61 117 192 95 119 193 94 65 194 63 120 195 65 67 196 95 119 197 275 121 198 182 122 199 187 123 200 276 124 201 187 123 202 192 125 203 263 126 204 122 58 205 127 127 206 277 128 207 192 125 208 197 129 209 264 130 210 127 127 211 132 131 212 278 132 213 197 129 214 202 133 215 265 134 216 132 131 217 137 135 218 279 136 219 202 133 220 207 137 221 266 138 222 137 135 223 142 139 224 280 140 225 207 137 226 212 141 227 267 142 228 142 139 229 147 143 230 281 144 231 212 141 232 217 145 233 268 146 234 147 143 235 152 147 236 282 148 237 217 145 238 222 149 239 269 150 240 152 147 241 157 151 242 283 152 243 222 149 244 227 153 245 270 26 246 157 151 247 162 154 248 271 155 249 162 154 250 167 156 251 102 157 252 221 158 253 181 159 254 272 160 255 167 156 256 172 161 257 273 162 258 172 161 259 177 163 260 101 164 261 100 165 262 97 166 263 103 167 264 99 168 265 100 165 266 104 169 267 98 170 268 99 168 269 105 171 270 96 172 271 98 170 272 97 166 273 110 173 274 107 174 275 100 165 276 109 175 277 110 173 278 109 175 279 98 170 280 108 176 281 98 170 282 106 177 283 108 176 284 112 178 285 110 173 286 115 179 287 115 179 288 109 175 289 114 180 290 114 180 291 108 176 292 113 181 293 113 181 294 106 177 295 111 182 296 117 57 297 115 179 298 120 183 299 115 179 300 119 184 301 120 183 302 119 184 303 113 181 304 118 185 305 118 185 306 111 182 307 116 186 308 122 58 309 120 183 310 125 187 311 125 187 312 119 184 313 124 188 314 124 188 315 118 185 316 123 189 317 123 189 318 116 186 319 121 190 320 127 127 321 125 187 322 130 191 323 130 191 324 124 188 325 129 192 326 129 192 327 123 189 328 128 193 329 128 193 330 121 190 331 126 194 332 127 127 333 135 195 334 132 131 335 135 195 336 129 192 337 134 196 338 129 192 339 133 197 340 134 196 341 128 193 342 131 198 343 133 197 344 132 131 345 140 199 346 137 135 347 135 195 348 139 200 349 140 199 350 134 196 351 138 201 352 139 200 353 133 197 354 136 202 355 138 201 356 142 139 357 140 199 358 145 203 359 145 203 360 139 200 361 144 204 362 144 204 363 138 201 364 143 205 365 138 201 366 141 206 367 143 205 368 142 139 369 150 207 370 147 143 371 150 207 372 144 204 373 149 208 374 149 208 375 143 205 376 148 209 377 148 209 378 141 206 379 146 210 380 152 147 381 150 207 382 155 211 383 155 211 384 149 208 385 154 212 386 154 212 387 148 209 388 153 213 389 153 213 390 146 210 391 151 214 392 157 151 393 155 211 394 160 215 395 155 211 396 159 216 397 160 215 398 154 212 399 158 217 400 159 216 401 158 217 402 151 214 403 156 218 404 157 151 405 165 219 406 162 154 407 165 219 408 159 216 409 164 220 410 164 220 411 158 217 412 163 221 413 158 217 414 161 222 415 163 221 416 162 154 417 170 223 418 167 156 419 165 219 420 169 224 421 170 223 422 164 220 423 168 225 424 169 224 425 163 221 426 166 226 427 168 225 428 167 156 429 175 227 430 172 161 431 170 223 432 174 228 433 175 227 434 169 224 435 173 229 436 174 228 437 168 225 438 171 230 439 173 229 440 172 161 441 180 231 442 177 163 443 175 227 444 179 232 445 180 231 446 174 228 447 178 233 448 179 232 449 173 229 450 176 234 451 178 233 452 182 122 453 180 231 454 185 235 455 185 235 456 179 232 457 184 236 458 184 236 459 178 233 460 183 237 461 183 237 462 176 234 463 181 159 464 182 122 465 190 238 466 187 123 467 190 238 468 184 236 469 189 239 470 189 239 471 183 237 472 188 240 473 188 240 474 181 159 475 186 241 476 192 125 477 190 238 478 195 242 479 195 242 480 189 239 481 194 243 482 194 243 483 188 240 484 193 244 485 193 244 486 186 241 487 191 245 488 192 125 489 200 246 490 197 129 491 195 242 492 199 247 493 200 246 494 194 243 495 198 248 496 199 247 497 193 244 498 196 249 499 198 248 500 197 129 501 205 250 502 202 133 503 200 246 504 204 251 505 205 250 506 199 247 507 203 252 508 204 251 509 198 248 510 201 253 511 203 252 512 202 133 513 210 254 514 207 137 515 205 250 516 209 255 517 210 254 518 204 251 519 208 256 520 209 255 521 203 252 522 206 257 523 208 256 524 207 137 525 215 258 526 212 141 527 210 254 528 214 259 529 215 258 530 209 255 531 213 260 532 214 259 533 208 256 534 211 261 535 213 260 536 212 141 537 220 262 538 217 145 539 220 262 540 214 259 541 219 263 542 214 259 543 218 264 544 219 263 545 218 264 546 211 261 547 216 265 548 217 145 549 225 266 550 222 149 551 220 262 552 224 267 553 225 266 554 219 263 555 223 268 556 224 267 557 218 264 558 221 158 559 223 268 560 227 153 561 225 266 562 230 269 563 225 266 564 229 270 565 230 269 566 224 267 567 228 271 568 229 270 569 223 268 570 226 272 571 228 271 572 232 273 573 230 269 574 235 274 575 230 269 576 234 275 577 235 274 578 229 270 579 233 276 580 234 275 581 228 271 582 231 277 583 233 276 584 237 278 585 235 274 586 240 279 587 235 274 588 239 280 589 240 279 590 234 275 591 238 281 592 239 280 593 233 276 594 236 282 595 238 281 596 237 278 597 245 283 598 242 284 599 245 283 600 239 280 601 244 285 602 244 285 603 238 281 604 243 286 605 243 286 606 236 282 607 241 287 608 247 288 609 245 283 610 250 289 611 245 283 612 249 290 613 250 289 614 244 285 615 248 291 616 249 290 617 248 291 618 241 287 619 246 292 620 252 293 621 250 289 622 255 294 623 250 289 624 254 295 625 255 294 626 249 290 627 253 296 628 254 295 629 253 296 630 246 292 631 251 297 632 252 293 633 103 167 634 101 164 635 255 294 636 104 169 637 103 167 638 254 295 639 105 171 640 104 169 641 253 296 642 102 157 643 105 171 644 1 298 645 256 299 646 3 300 647 247 288 648 259 61 649 287 301 650 61 302 651 259 61 652 63 303 653 112 178 654 261 304 655 260 305 656 7 306 657 261 304 658 9 307 659 242 284 660 287 301 661 286 308 662 33 309 663 274 310 664 35 311 665 59 312 666 287 301 667 61 302 668 252 293 669 257 313 670 259 61 671 258 314 672 112 178 673 260 305 674 63 303 675 257 313 676 1 298 677 237 278 678 286 308 679 285 315 680 256 299 681 107 174 682 258 314 683 31 316 684 273 162 685 33 309 686 57 317 687 286 308 688 59 312 689 284 318 690 237 278 691 285 315 692 29 319 693 272 160 694 31 316 695 55 320 696 285 315 697 57 317 698 27 321 699 271 155 700 29 319 701 53 322 702 284 318 703 55 320 704 25 323 705 270 26 706 27 321 707 51 324 708 283 152 709 53 322 710 23 325 711 269 150 712 25 323 713 49 326 714 282 148 715 51 324 716 21 20 717 268 146 718 23 325 719 47 327 720 281 144 721 49 326 722 19 328 723 267 142 724 21 20 725 45 329 726 280 140 727 47 327 728 17 330 729 266 138 730 19 328 731 43 331 732 279 136 733 45 329 734 15 332 735 265 134 736 17 330 737 41 333 738 278 132 739 43 331 740 13 334 741 264 130 742 15 332 743 39 37 744 277 128 745 41 333 746 5 335 747 260 305 748 7 306 749 11 336 750 263 126 751 13 334 752 37 121 753 276 124 754 39 37 755 9 307 756 262 56 757 11 336 758 283 152 759 232 273 760 284 318 761 3 300 762 258 314 763 5 335 764 35 311 765 275 121 766 37 121 767 274 310 768 177 163 769 182 122 770 101 164 771 256 299 772 257 313 773 65 0 774 64 3 775 2 1 776 64 3 777 66 5 778 4 4 779 66 5 780 67 7 781 6 6 782 67 7 783 68 9 784 8 8 785 68 9 786 69 11 787 10 10 788 69 11 789 70 13 790 12 12 791 70 13 792 71 15 793 14 14 794 71 15 795 72 17 796 16 16 797 72 17 798 73 19 799 18 18 800 73 19 801 74 21 802 20 20 803 74 21 804 75 23 805 22 22 806 75 23 807 76 25 808 24 24 809 76 25 810 77 27 811 26 26 812 77 27 813 78 29 814 28 28 815 78 29 816 79 31 817 30 30 818 79 31 819 80 33 820 32 32 821 80 33 822 81 34 823 34 34 824 81 34 825 82 36 826 36 35 827 82 36 828 83 38 829 38 37 830 83 38 831 84 40 832 40 39 833 84 40 834 85 41 835 42 41 836 85 41 837 86 42 838 44 42 839 86 42 840 87 43 841 46 43 842 87 43 843 88 45 844 48 44 845 88 45 846 89 47 847 50 46 848 89 47 849 90 49 850 52 48 851 90 49 852 91 51 853 54 50 854 91 51 855 92 52 856 56 52 857 92 52 858 93 54 859 58 53 860 93 54 861 94 59 862 60 55 863 262 56 864 261 304 865 117 57 866 94 59 867 95 61 868 62 60 869 95 61 870 65 0 871 0 2 872 62 337 873 0 338 874 2 339 875 2 339 876 4 340 877 6 341 878 6 341 879 8 338 880 10 342 881 10 342 882 12 343 883 14 62 884 14 62 885 16 338 886 18 344 887 18 344 888 20 345 889 22 346 890 22 346 891 24 338 892 26 347 893 26 347 894 28 348 895 30 63 896 30 63 897 32 338 898 34 349 899 34 349 900 36 350 901 38 351 902 38 351 903 40 338 904 42 352 905 42 352 906 44 353 907 46 64 908 46 64 909 48 338 910 50 354 911 50 354 912 52 355 913 46 64 914 52 355 915 54 356 916 46 64 917 54 356 918 56 357 919 62 337 920 56 357 921 58 358 922 62 337 923 58 358 924 60 359 925 62 337 926 62 337 927 2 339 928 14 62 929 2 339 930 6 341 931 14 62 932 6 341 933 10 342 934 14 62 935 14 62 936 18 344 937 22 346 938 22 346 939 26 347 940 14 62 941 26 347 942 30 63 943 14 62 944 30 63 945 34 349 946 46 64 947 34 349 948 38 351 949 46 64 950 38 351 951 42 352 952 46 64 953 46 64 954 54 356 955 62 337 956 62 337 957 14 62 958 46 64 959 1 65 960 3 69 961 64 66 962 5 68 963 66 65 964 64 66 965 7 70 966 67 72 967 66 65 968 9 71 969 68 74 970 67 72 971 11 73 972 69 76 973 68 74 974 11 73 975 13 77 976 70 75 977 13 77 978 15 80 979 71 78 980 17 79 981 72 65 982 71 78 983 17 79 984 19 83 985 73 81 986 21 82 987 74 65 988 73 81 989 21 82 990 23 86 991 75 84 992 25 85 993 76 88 994 75 84 995 27 87 996 77 90 997 76 88 998 27 87 999 29 65 1000 78 89 1001 31 91 1002 79 93 1003 78 89 1004 31 91 1005 33 65 1006 80 92 1007 35 94 1008 81 96 1009 80 92 1010 37 95 1011 82 98 1012 81 96 1013 39 97 1014 83 100 1015 82 98 1016 41 99 1017 84 65 1018 83 100 1019 41 99 1020 43 102 1021 85 101 1022 43 102 1023 45 104 1024 86 103 1025 45 104 1026 47 107 1027 87 105 1028 49 106 1029 88 65 1030 87 105 1031 49 106 1032 51 110 1033 89 108 1034 53 109 1035 90 112 1036 89 108 1037 55 111 1038 91 114 1039 90 112 1040 57 113 1041 92 116 1042 91 114 1043 59 115 1044 93 118 1045 92 116 1046 61 117 1047 94 65 1048 93 118 1049 61 117 1050 63 120 1051 95 119 1052 63 120 1053 1 65 1054 65 67 1055 275 121 1056 274 310 1057 182 122 1058 276 124 1059 275 121 1060 187 123 1061 263 126 1062 262 56 1063 122 58 1064 277 128 1065 276 124 1066 192 125 1067 264 130 1068 263 126 1069 127 127 1070 278 132 1071 277 128 1072 197 129 1073 265 134 1074 264 130 1075 132 131 1076 279 136 1077 278 132 1078 202 133 1079 266 138 1080 265 134 1081 137 135 1082 280 140 1083 279 136 1084 207 137 1085 267 142 1086 266 138 1087 142 139 1088 281 144 1089 280 140 1090 212 141 1091 268 146 1092 267 142 1093 147 143 1094 282 148 1095 281 144 1096 217 145 1097 269 150 1098 268 146 1099 152 147 1100 283 152 1101 282 148 1102 222 149 1103 270 26 1104 269 150 1105 157 151 1106 271 155 1107 270 26 1108 162 154 1109 106 177 1110 96 172 1111 102 157 1112 251 297 1113 246 292 1114 241 287 1115 241 287 1116 236 282 1117 231 277 1118 231 277 1119 226 272 1120 221 158 1121 221 158 1122 216 265 1123 201 253 1124 216 265 1125 211 261 1126 201 253 1127 211 261 1128 206 257 1129 201 253 1130 201 253 1131 196 249 1132 191 245 1133 191 245 1134 186 241 1135 181 159 1136 181 159 1137 176 234 1138 171 230 1139 171 230 1140 166 226 1141 181 159 1142 166 226 1143 161 222 1144 181 159 1145 161 222 1146 156 218 1147 141 206 1148 156 218 1149 151 214 1150 141 206 1151 151 214 1152 146 210 1153 141 206 1154 141 206 1155 136 202 1156 131 198 1157 131 198 1158 126 194 1159 121 190 1160 121 190 1161 116 186 1162 102 157 1163 116 186 1164 111 182 1165 102 157 1166 111 182 1167 106 177 1168 102 157 1169 102 157 1170 251 297 1171 241 287 1172 241 287 1173 231 277 1174 102 157 1175 231 277 1176 221 158 1177 102 157 1178 201 253 1179 191 245 1180 221 158 1181 191 245 1182 181 159 1183 221 158 1184 141 206 1185 131 198 1186 121 190 1187 181 159 1188 161 222 1189 141 206 1190 141 206 1191 121 190 1192 181 159 1193 121 190 1194 102 157 1195 181 159 1196 272 160 1197 271 155 1198 167 156 1199 273 162 1200 272 160 1201 172 161 1202 101 164 1203 103 167 1204 100 165 1205 103 167 1206 104 169 1207 99 168 1208 104 169 1209 105 171 1210 98 170 1211 105 171 1212 102 157 1213 96 172 1214 97 166 1215 100 165 1216 110 173 1217 100 165 1218 99 168 1219 109 175 1220 109 175 1221 99 168 1222 98 170 1223 98 170 1224 96 172 1225 106 177 1226 112 178 1227 107 174 1228 110 173 1229 115 179 1230 110 173 1231 109 175 1232 114 180 1233 109 175 1234 108 176 1235 113 181 1236 108 176 1237 106 177 1238 117 57 1239 112 178 1240 115 179 1241 115 179 1242 114 180 1243 119 184 1244 119 184 1245 114 180 1246 113 181 1247 118 185 1248 113 181 1249 111 182 1250 122 58 1251 117 57 1252 120 183 1253 125 187 1254 120 183 1255 119 184 1256 124 188 1257 119 184 1258 118 185 1259 123 189 1260 118 185 1261 116 186 1262 127 127 1263 122 58 1264 125 187 1265 130 191 1266 125 187 1267 124 188 1268 129 192 1269 124 188 1270 123 189 1271 128 193 1272 123 189 1273 121 190 1274 127 127 1275 130 191 1276 135 195 1277 135 195 1278 130 191 1279 129 192 1280 129 192 1281 128 193 1282 133 197 1283 128 193 1284 126 194 1285 131 198 1286 132 131 1287 135 195 1288 140 199 1289 135 195 1290 134 196 1291 139 200 1292 134 196 1293 133 197 1294 138 201 1295 133 197 1296 131 198 1297 136 202 1298 142 139 1299 137 135 1300 140 199 1301 145 203 1302 140 199 1303 139 200 1304 144 204 1305 139 200 1306 138 201 1307 138 201 1308 136 202 1309 141 206 1310 142 139 1311 145 203 1312 150 207 1313 150 207 1314 145 203 1315 144 204 1316 149 208 1317 144 204 1318 143 205 1319 148 209 1320 143 205 1321 141 206 1322 152 147 1323 147 143 1324 150 207 1325 155 211 1326 150 207 1327 149 208 1328 154 212 1329 149 208 1330 148 209 1331 153 213 1332 148 209 1333 146 210 1334 157 151 1335 152 147 1336 155 211 1337 155 211 1338 154 212 1339 159 216 1340 154 212 1341 153 213 1342 158 217 1343 158 217 1344 153 213 1345 151 214 1346 157 151 1347 160 215 1348 165 219 1349 165 219 1350 160 215 1351 159 216 1352 164 220 1353 159 216 1354 158 217 1355 158 217 1356 156 218 1357 161 222 1358 162 154 1359 165 219 1360 170 223 1361 165 219 1362 164 220 1363 169 224 1364 164 220 1365 163 221 1366 168 225 1367 163 221 1368 161 222 1369 166 226 1370 167 156 1371 170 223 1372 175 227 1373 170 223 1374 169 224 1375 174 228 1376 169 224 1377 168 225 1378 173 229 1379 168 225 1380 166 226 1381 171 230 1382 172 161 1383 175 227 1384 180 231 1385 175 227 1386 174 228 1387 179 232 1388 174 228 1389 173 229 1390 178 233 1391 173 229 1392 171 230 1393 176 234 1394 182 122 1395 177 163 1396 180 231 1397 185 235 1398 180 231 1399 179 232 1400 184 236 1401 179 232 1402 178 233 1403 183 237 1404 178 233 1405 176 234 1406 182 122 1407 185 235 1408 190 238 1409 190 238 1410 185 235 1411 184 236 1412 189 239 1413 184 236 1414 183 237 1415 188 240 1416 183 237 1417 181 159 1418 192 125 1419 187 123 1420 190 238 1421 195 242 1422 190 238 1423 189 239 1424 194 243 1425 189 239 1426 188 240 1427 193 244 1428 188 240 1429 186 241 1430 192 125 1431 195 242 1432 200 246 1433 195 242 1434 194 243 1435 199 247 1436 194 243 1437 193 244 1438 198 248 1439 193 244 1440 191 245 1441 196 249 1442 197 129 1443 200 246 1444 205 250 1445 200 246 1446 199 247 1447 204 251 1448 199 247 1449 198 248 1450 203 252 1451 198 248 1452 196 249 1453 201 253 1454 202 133 1455 205 250 1456 210 254 1457 205 250 1458 204 251 1459 209 255 1460 204 251 1461 203 252 1462 208 256 1463 203 252 1464 201 253 1465 206 257 1466 207 137 1467 210 254 1468 215 258 1469 210 254 1470 209 255 1471 214 259 1472 209 255 1473 208 256 1474 213 260 1475 208 256 1476 206 257 1477 211 261 1478 212 141 1479 215 258 1480 220 262 1481 220 262 1482 215 258 1483 214 259 1484 214 259 1485 213 260 1486 218 264 1487 218 264 1488 213 260 1489 211 261 1490 217 145 1491 220 262 1492 225 266 1493 220 262 1494 219 263 1495 224 267 1496 219 263 1497 218 264 1498 223 268 1499 218 264 1500 216 265 1501 221 158 1502 227 153 1503 222 149 1504 225 266 1505 225 266 1506 224 267 1507 229 270 1508 224 267 1509 223 268 1510 228 271 1511 223 268 1512 221 158 1513 226 272 1514 232 273 1515 227 153 1516 230 269 1517 230 269 1518 229 270 1519 234 275 1520 229 270 1521 228 271 1522 233 276 1523 228 271 1524 226 272 1525 231 277 1526 237 278 1527 232 273 1528 235 274 1529 235 274 1530 234 275 1531 239 280 1532 234 275 1533 233 276 1534 238 281 1535 233 276 1536 231 277 1537 236 282 1538 237 278 1539 240 279 1540 245 283 1541 245 283 1542 240 279 1543 239 280 1544 244 285 1545 239 280 1546 238 281 1547 243 286 1548 238 281 1549 236 282 1550 247 288 1551 242 284 1552 245 283 1553 245 283 1554 244 285 1555 249 290 1556 244 285 1557 243 286 1558 248 291 1559 248 291 1560 243 286 1561 241 287 1562 252 293 1563 247 288 1564 250 289 1565 250 289 1566 249 290 1567 254 295 1568 249 290 1569 248 291 1570 253 296 1571 253 296 1572 248 291 1573 246 292 1574 252 293 1575 255 294 1576 103 167 1577 255 294 1578 254 295 1579 104 169 1580 254 295 1581 253 296 1582 105 171 1583 253 296 1584 251 297 1585 102 157 1586 1 298 1587 257 313 1588 256 299 1589 247 288 1590 252 293 1591 259 61 1592 61 302 1593 287 301 1594 259 61 1595 112 178 1596 117 57 1597 261 304 1598 7 306 1599 260 305 1600 261 304 1601 242 284 1602 247 288 1603 287 301 1604 33 309 1605 273 162 1606 274 310 1607 59 312 1608 286 308 1609 287 301 1610 252 293 1611 101 164 1612 257 313 1613 258 314 1614 107 174 1615 112 178 1616 63 303 1617 259 61 1618 257 313 1619 237 278 1620 242 284 1621 286 308 1622 256 299 1623 97 166 1624 107 174 1625 31 316 1626 272 160 1627 273 162 1628 57 317 1629 285 315 1630 286 308 1631 284 318 1632 232 273 1633 237 278 1634 29 319 1635 271 155 1636 272 160 1637 55 320 1638 284 318 1639 285 315 1640 27 321 1641 270 26 1642 271 155 1643 53 322 1644 283 152 1645 284 318 1646 25 323 1647 269 150 1648 270 26 1649 51 324 1650 282 148 1651 283 152 1652 23 325 1653 268 146 1654 269 150 1655 49 326 1656 281 144 1657 282 148 1658 21 20 1659 267 142 1660 268 146 1661 47 327 1662 280 140 1663 281 144 1664 19 328 1665 266 138 1666 267 142 1667 45 329 1668 279 136 1669 280 140 1670 17 330 1671 265 134 1672 266 138 1673 43 331 1674 278 132 1675 279 136 1676 15 332 1677 264 130 1678 265 134 1679 41 333 1680 277 128 1681 278 132 1682 13 334 1683 263 126 1684 264 130 1685 39 37 1686 276 124 1687 277 128 1688 5 335 1689 258 314 1690 260 305 1691 11 336 1692 262 56 1693 263 126 1694 37 121 1695 275 121 1696 276 124 1697 9 307 1698 261 304 1699 262 56 1700 283 152 1701 227 153 1702 232 273 1703 3 300 1704 256 299 1705 258 314 1706 35 311 1707 274 310 1708 275 121 1709 274 310 1710 273 162 1711 177 163 1712 101 164 1713 97 166 1714 256 299 1715</p>
        </triangles>
      </mesh>
    </geometry>
  </library_geometries>
  <library_visual_scenes>
    <visual_scene id="Scene" name="Scene">
      <node id="Rplidar_LowPoly" name="Rplidar_LowPoly" type="NODE">
        <matrix sid="transform">-1.68783e-9 -0.03861299 0 0 0.03861299 -1.68783e-9 0 0 0 0 0.03861299 0.01208292 0 0 0 1</matrix>
        <instance_geometry url="#Cylinder-mesh" name="Rplidar_LowPoly">
          <bind_material>
            <technique_common>
              <instance_material symbol="Material-material" target="#Material-material">
                <bind_vertex_input semantic="UVMap" input_semantic="TEXCOORD" input_set="0"/>
              </instance_material>
            </technique_common>
          </bind_material>
        </instance_geometry>
      </node>
    </visual_scene>
  </library_visual_scenes>
  <scene>
    <instance_visual_scene url="#Scene"/>
  </scene>
</COLLADA>